<svg id="Layer_1" data-name="Layer 1" xmlns="http://www.w3.org/2000/svg" xmlns:xlink="http://www.w3.org/1999/xlink" viewBox="0 0 919.38 223.01"><defs><style>.cls-1{fill:none;}.cls-2{fill:#00427e;}.cls-3{fill:#9ddcf9;opacity:0.4;}.cls-3,.cls-4,.cls-5{isolation:isolate;}.cls-4,.cls-5{font-size:196.52px;font-family:Vivaldii, Vivaldi;}.cls-4{fill:url(#Jive);}.cls-5{stroke:#fff;stroke-miterlimit:10;stroke-width:2px;}</style><pattern id="Jive" data-name="Jive" width="108.34" height="109.64" patternTransform="matrix(1.04, 0, 0, -1, 169.76, 856.02)" patternUnits="userSpaceOnUse" viewBox="0 0 108.34 109.64"><rect class="cls-1" width="108.34" height="109.64"/><rect class="cls-1" width="108.34" height="109.64"/><path class="cls-2" d="M87.47-34.69a.25.25,0,0,0,.25.21c12.91.13,24.75,3.27,34,11.51-8-5.56-22.94-7.51-31.53-3.62a.25.25,0,0,0-.14.29.26.26,0,0,0,.25.2c10.68-.29,19.28,3,26,9-6.87.42-12.57,4.74-12.56,9.84a.26.26,0,0,0,.2.25.25.25,0,0,0,.28-.14c1.12-2.49,4.75-3.78,8.58-2.88,4.18,1,7,4.19,6.3,7.17-.47,2-2.44,3.4-5,3.79a.26.26,0,0,0,0,.51,17.53,17.53,0,0,0,3.32,0c6.49-.62,11.51-4.6,11.95-9.18,4.71.55,8.88,3.16,10.38,6.77a.25.25,0,0,0,.28.15.25.25,0,0,0,.21-.23c.38-4.75-1.26-7.84-5-10.85a21.79,21.79,0,0,0,17.26-.54.25.25,0,0,0,.14-.28.24.24,0,0,0-.24-.2A16.26,16.26,0,0,1,140.71-18c18.25,5.13,33.09-6.2,27.95-23a.26.26,0,0,0-.27-.18.26.26,0,0,0-.23.23c-.92,9.71-7.7,16.12-17.86,17.08a17.47,17.47,0,0,0,11.56-15.53.25.25,0,0,0-.19-.26.25.25,0,0,0-.29.14,16.75,16.75,0,0,1-14.16,9.81c6.33-2.58,10.4-8.6,11.57-16.42a.25.25,0,0,0-.17-.28.25.25,0,0,0-.3.12c-3.87,7.58-12.16,12.79-22.45,8.81-10.62-4.11-15.27-16.39-16.3-25a.27.27,0,0,0-.24-.22.25.25,0,0,0-.26.2c-3.72,15.69,3.58,31.95,16.64,38.84-7.1-2-13.44-6.26-17-13.35-8.29-1-14-3.86-16.86-9.24a.24.24,0,0,0-.29-.12.25.25,0,0,0-.18.27c.18,2.11.94,6.33,4.07,8.27-7,0-12.51.89-17.8,3A.21.21,0,0,0,87.47-34.69ZM117-88.17a.26.26,0,0,1-.32,0,.24.24,0,0,1,0-.31c1.62-2.8.14-6.81-3-6.81-5.72,0-8.47,10.77-7.6,20.59,2.16-5.76,4-8,7.35-10.79a.24.24,0,0,1,.32,0,.26.26,0,0,1,.06.32,46.53,46.53,0,0,0-5.9,24.09c1.46-6,3.2-9.32,8.13-14.38a.24.24,0,0,1,.32,0,.26.26,0,0,1,.09.32,44.26,44.26,0,0,0-.95,34.26.26.26,0,0,1-.06.28.26.26,0,0,1-.29,0c-5.21-2.55-8.26-4.23-12.75-10.39,1.36-7.4.23-11.05-3.17-17.2,3.94,9.92,1.84,23.89-8.19,29.59a.26.26,0,0,1-.32-.06.25.25,0,0,1,0-.33,17.92,17.92,0,0,0,4.16-17.93C96.3-46.55,87.17-37.82,77-37.82c-9.6,0-16.15-7.51-15.61-14.94s5.44-11,9.67-12.5a.25.25,0,0,1,.3.1.27.27,0,0,1,0,.32c-5.61,5.69-6.38,16.49,3.58,19.76C69-50.14,71.21-61.91,80.59-62.8a.24.24,0,0,1,.26.17.26.26,0,0,1-.1.3,8,8,0,0,0-3.68,6.57c0,4.67,3.42,6.51,5.68,6.51,3.42,0,6.26-3.26,6.26-8.18,0-5.84-5.26-10.68-12-11.44s-12.78,2.15-15.75,6.46a.25.25,0,0,1-.31.09.26.26,0,0,1-.14-.29,17.15,17.15,0,0,1,26.89-9.51c-6.61-7.5-17-7.61-25.72.09a.26.26,0,0,1-.32,0,.24.24,0,0,1-.07-.31c2.67-5.41,9.25-11.82,18.61-10.88,8.56.86,13.52,9,14.52,15.69C95.26-76,93.31-82.06,86-87.67a.25.25,0,0,1-.07-.32.26.26,0,0,1,.3-.13c6.79,2,12.23,5.43,15,12.54,0-6.16-2.14-12.37-7.53-16.51a.24.24,0,0,1-.07-.31.28.28,0,0,1,.3-.13c3.45,1,6.17,2.49,8.14,5.19,1.31-11.1,6.52-17.69,12.52-17.69,4.12,0,7.21,3,7.21,7.87A11.46,11.46,0,0,1,117-88.17ZM216.19,3.45c-3.16,3.9-9.54,5.39-16.43,4a22.65,22.65,0,0,1-1.61,11.48.25.25,0,0,1-.48-.12C198.05,10,193.05,3,184.22-.11c6.91,4.76,8.93,14.19,5.64,19.07a.25.25,0,0,1-.31.09.24.24,0,0,1-.15-.28c.37-2.06-.61-4.68-2.71-6.73-2.91-2.81-6.85-3.45-8.81-1.43s-1.2,5.95,1.71,8.76A9.58,9.58,0,0,0,183,21.55a.26.26,0,0,1,.17.27A.25.25,0,0,1,183,22c-6.39.55-10.77-3.25-13.52-7.88s-7.57-8.41-13.21-7.67a.24.24,0,0,1-.27-.17.26.26,0,0,1,.11-.3A11.05,11.05,0,0,1,166,5c-5.79-4.91-14-7.74-21.84-5.23a.25.25,0,0,1-.29-.1.26.26,0,0,1,0-.31C149.76-7.23,161.54-7.37,169-2c-3-4.32-7.07-7.48-14.29-8.48a.25.25,0,0,1-.22-.22.25.25,0,0,1,.16-.27c8.29-3.08,16.6,0,23.45,8.21a26.34,26.34,0,0,0-14.77-14,.25.25,0,0,1-.16-.28.25.25,0,0,1,.24-.21c3.94-.08,7.49.86,12.27,3.57C172.13-19.42,172.9-29.37,178-36a.27.27,0,0,1,.3-.08.25.25,0,0,1,.15.27c-1.18,7.2,1.3,15.33,5.61,19.64A18.16,18.16,0,0,1,190-35.8a.25.25,0,0,1,.26,0,.24.24,0,0,1,.16.2c1.23,9.42,11.77,19,20.6,19.78a.26.26,0,0,1,.23.24.24.24,0,0,1-.2.26,20.83,20.83,0,0,1-12.39-1,21.87,21.87,0,0,0,9.56,6.25.26.26,0,0,1,.18.27.25.25,0,0,1-.23.22,20.45,20.45,0,0,1-12.73-3.54A31.48,31.48,0,0,0,214.84.32a.27.27,0,0,1,.2.26.27.27,0,0,1-.23.24c-11.92,1.3-21.75-3.32-28.22-11.92,1.65,4.9,6.37,9.76,12.95,12.62C205.39,4.07,211.39,4.47,216,3a.27.27,0,0,1,.29.1A.44.44,0,0,1,216.19,3.45ZM163.28-72.12c4.81,10.49,4.46,18.69.59,29.05a.26.26,0,0,1-.29.16.26.26,0,0,1-.2-.26c.62-12.62-2.83-21.65-10.3-27.81,8.25,9.85,4.35,29.56-8.82,29.56-9.59,0-17.52-8-19.46-17.52a.25.25,0,0,1,.16-.29.25.25,0,0,1,.31.11c2.84,4.76,7.41,7.85,12.46,7.85,8.13,0,10.54-6.47,10.54-11,0-6.19-4.93-11.34-8.71-11.34a4.93,4.93,0,0,0-5,4.93,8.86,8.86,0,0,0,6.38,8.16.25.25,0,0,1,.18.28.26.26,0,0,1-.25.22,10.46,10.46,0,0,1-9.63-5.57,17.4,17.4,0,0,0,.64,7.72.26.26,0,0,1-.12.3.25.25,0,0,1-.32-.07C124-67,127.56-83.27,133.38-90,127.85-86,123-77.37,123-65.61a.25.25,0,0,1-.21.25.24.24,0,0,1-.28-.15c-4.11-10.25-1.93-29.25,9.28-39.85a20,20,0,0,0-9.12.69.25.25,0,0,1-.3-.12.25.25,0,0,1,.06-.32c4.09-3.44,9.81-4.53,15.26-4.53-4.7,5.5-3.14,16.55,4.36,16.55,5.35,0,7.78-8.3,3.65-12.78a.26.26,0,0,1,0-.31.25.25,0,0,1,.3-.1c4.78,1.65,10,5.79,10,11,0,5-4.81,9.39-11.8,9.05,8.82,2.51,18.05-.27,22.88-6.25a.26.26,0,0,1,.31-.07.25.25,0,0,1,.13.29c-2.79,10.72-12,15.2-23.44,13.71,9.28,3.76,23.25.48,29.42-7.31a.26.26,0,0,1,.31-.07.26.26,0,0,1,.14.28C172.54-79,169-74.07,163.28-72.12Z"/><path class="cls-3" d="M189.67-52.83a.25.25,0,0,0-.25-.21c-12.91-.14-24.75-3.27-34-11.52,8,5.56,22.94,7.51,31.53,3.62a.25.25,0,0,0,.14-.29.26.26,0,0,0-.25-.2c-10.68.29-19.28-3-26-9,6.87-.42,12.57-4.74,12.56-9.85a.26.26,0,0,0-.2-.25.26.26,0,0,0-.28.14c-1.12,2.49-4.75,3.78-8.58,2.88-4.18-1-7-4.19-6.3-7.17.47-2,2.44-3.4,4.95-3.79a.26.26,0,0,0,.22-.26.26.26,0,0,0-.23-.25,17.53,17.53,0,0,0-3.32,0c-6.49.62-11.51,4.59-12,9.18-4.71-.55-8.88-3.16-10.38-6.77a.25.25,0,0,0-.28-.15.25.25,0,0,0-.21.23c-.38,4.75,1.26,7.84,5,10.85a21.83,21.83,0,0,0-17.26.54.26.26,0,0,0-.14.28.24.24,0,0,0,.24.2,16.26,16.26,0,0,1,11.73,5.07c-18.26-5.13-33.09,6.2-28,23.05a.26.26,0,0,0,.27.18.26.26,0,0,0,.23-.23c.92-9.71,7.7-16.12,17.86-17.08a17.45,17.45,0,0,0-11.56,15.53.25.25,0,0,0,.19.26.25.25,0,0,0,.29-.14,16.77,16.77,0,0,1,14.16-9.81c-6.33,2.58-10.4,8.6-11.57,16.42a.25.25,0,0,0,.17.28.25.25,0,0,0,.3-.13C122.68-48.76,131-54,141.26-50c10.62,4.11,15.27,16.38,16.3,25a.26.26,0,0,0,.24.22.26.26,0,0,0,.26-.2c3.72-15.69-3.58-31.95-16.64-38.84,7.1,2,13.44,6.26,17,13.35,8.29,1,14,3.86,16.86,9.24a.24.24,0,0,0,.29.12.26.26,0,0,0,.18-.27c-.18-2.11-.94-6.33-4.07-8.27,7,0,12.51-.89,17.8-3C189.62-52.6,189.69-52.71,189.67-52.83ZM160.18.64a.27.27,0,0,1,.32,0,.24.24,0,0,1,0,.31c-1.62,2.8-.14,6.81,3.05,6.81,5.72,0,8.47-10.77,7.6-20.59C169-7,167.16-4.75,163.84-2a.24.24,0,0,1-.32,0,.26.26,0,0,1-.06-.32,46.5,46.5,0,0,0,5.9-24.08c-1.46,6-3.2,9.32-8.13,14.38a.24.24,0,0,1-.32,0,.25.25,0,0,1-.09-.31,44.26,44.26,0,0,0,1-34.26.26.26,0,0,1,.06-.28.26.26,0,0,1,.29,0c5.21,2.55,8.26,4.23,12.75,10.39-1.36,7.4-.23,11.05,3.17,17.19-3.94-9.92-1.84-23.89,8.19-29.59a.25.25,0,0,1,.32.06.25.25,0,0,1,0,.33,17.92,17.92,0,0,0-4.16,17.93C180.84-41,190-49.69,200.15-49.69c9.6,0,16.15,7.51,15.61,14.94s-5.44,11-9.67,12.5a.25.25,0,0,1-.3-.1.26.26,0,0,1,0-.31c5.61-5.69,6.38-16.49-3.58-19.76,5.86,5.06,3.69,16.83-5.69,17.72a.24.24,0,0,1-.26-.17.26.26,0,0,1,.1-.3,8,8,0,0,0,3.68-6.57c0-4.67-3.42-6.51-5.68-6.51-3.42,0-6.26,3.26-6.26,8.18,0,5.84,5.26,10.68,12,11.43s12.78-2.15,15.75-6.46a.25.25,0,0,1,.31-.09.25.25,0,0,1,.14.29,17.15,17.15,0,0,1-26.89,9.51c6.61,7.5,17,7.61,25.72-.09a.24.24,0,0,1,.32,0,.24.24,0,0,1,.07.31C212.9-9.77,206.32-3.36,197-4.3c-8.56-.86-13.52-9-14.52-15.69-.56,8.52,1.39,14.54,8.75,20.14a.25.25,0,0,1,.07.32.26.26,0,0,1-.3.13c-6.79-2-12.23-5.42-15.05-12.54,0,6.16,2.14,12.37,7.53,16.51a.26.26,0,0,1-.22.45c-3.45-1-6.17-2.49-8.14-5.18-1.31,11.1-6.52,17.69-12.53,17.69-4.12,0-7.21-3-7.21-7.87A11.5,11.5,0,0,1,160.18.64ZM61-91c3.16-3.9,9.54-5.39,16.43-4A22.71,22.71,0,0,1,79-106.46a.25.25,0,0,1,.29-.14.25.25,0,0,1,.19.26c-.38,8.77,4.62,15.84,13.45,18.91C86-92.19,84-101.62,87.28-106.49a.25.25,0,0,1,.31-.09.24.24,0,0,1,.15.28c-.37,2.06.61,4.68,2.71,6.72,2.91,2.81,6.85,3.45,8.81,1.43s1.2-5.95-1.71-8.76a9.75,9.75,0,0,0-3.45-2.19.26.26,0,0,1-.17-.27.25.25,0,0,1,.23-.22c6.39-.55,10.77,3.25,13.52,7.88s7.57,8.41,13.21,7.67a.24.24,0,0,1,.27.17.26.26,0,0,1-.11.3,11.05,11.05,0,0,1-9.86,1c5.79,4.91,14,7.74,21.84,5.23a.25.25,0,0,1,.29.1.26.26,0,0,1,0,.31c-5.91,6.56-17.69,6.7-25.11,1.37,3,4.32,7.07,7.49,14.29,8.48a.25.25,0,0,1,.22.22.26.26,0,0,1-.16.27c-8.29,3.08-16.6,0-23.45-8.22a26.31,26.31,0,0,0,14.77,14,.25.25,0,0,1,.16.28.25.25,0,0,1-.24.21c-3.94.08-7.49-.86-12.26-3.57,3.51,5.69,2.74,15.64-2.37,22.26a.27.27,0,0,1-.3.08.26.26,0,0,1-.15-.28c1.18-7.2-1.3-15.33-5.61-19.64a18.16,18.16,0,0,1-5.9,19.64.25.25,0,0,1-.26,0,.24.24,0,0,1-.16-.2c-1.23-9.42-11.77-19-20.6-19.78a.26.26,0,0,1-.23-.24.24.24,0,0,1,.2-.26,20.83,20.83,0,0,1,12.39,1A21.78,21.78,0,0,0,69-77.42a.26.26,0,0,1-.18-.27.24.24,0,0,1,.23-.22,20.45,20.45,0,0,1,12.73,3.54A31.48,31.48,0,0,0,62.32-87.88a.27.27,0,0,1-.2-.26.27.27,0,0,1,.23-.24c11.92-1.3,21.75,3.32,28.22,11.92-1.65-4.9-6.37-9.76-12.95-12.62-5.85-2.55-11.85-3-16.42-1.51a.27.27,0,0,1-.29-.1A.31.31,0,0,1,61-91Zm52.91,75.57c-4.81-10.49-4.46-18.69-.59-29a.25.25,0,0,1,.29-.16.26.26,0,0,1,.2.26c-.62,12.62,2.83,21.65,10.3,27.81-8.25-9.85-4.35-29.56,8.82-29.56,9.59,0,17.52,8,19.46,17.53a.25.25,0,0,1-.16.29.25.25,0,0,1-.31-.11c-2.84-4.76-7.41-7.85-12.46-7.85-8.13,0-10.54,6.47-10.54,11,0,6.19,4.93,11.34,8.71,11.34a4.93,4.93,0,0,0,5-4.93A8.86,8.86,0,0,0,136.24-27a.25.25,0,0,1-.18-.28.26.26,0,0,1,.25-.22,10.45,10.45,0,0,1,9.63,5.57,17.4,17.4,0,0,0-.64-7.72.26.26,0,0,1,.12-.3.26.26,0,0,1,.32.07c7.36,9.39,3.84,25.62-2,32.36,5.53-4,10.42-12.63,10.34-24.39a.25.25,0,0,1,.21-.25.25.25,0,0,1,.28.15c4.11,10.25,1.93,29.25-9.28,39.85a20,20,0,0,0,9.12-.69.26.26,0,0,1,.24.44c-4.09,3.46-9.81,4.54-15.27,4.54,4.7-5.5,3.14-16.55-4.35-16.55-5.35,0-7.78,8.3-3.65,12.78a.26.26,0,0,1,0,.31.25.25,0,0,1-.3.1c-4.78-1.66-9.95-5.79-9.95-11,0-5,4.81-9.39,11.8-9C124.16-3.8,114.93-1,110.1,5a.26.26,0,0,1-.31.07.24.24,0,0,1-.13-.29C112.45-6,121.63-10.47,133.1-9c-9.28-3.76-23.25-.48-29.42,7.31a.26.26,0,0,1-.31.07.26.26,0,0,1-.14-.28C104.61-8.51,108.1-13.45,113.86-15.41Z"/><path class="cls-2" d="M-20.86-34.69a.25.25,0,0,0,.25.21c12.91.13,24.75,3.27,34,11.51-8-5.56-22.94-7.51-31.53-3.62a.25.25,0,0,0-.14.29.26.26,0,0,0,.25.2c10.68-.29,19.28,3,26,9C1.05-16.72-4.65-12.4-4.64-7.3a.26.26,0,0,0,.2.25.25.25,0,0,0,.28-.14C-3-9.68.59-11,4.42-10.07c4.18,1,7,4.19,6.3,7.17-.47,2-2.44,3.4-5,3.79a.26.26,0,0,0,0,.51,17.53,17.53,0,0,0,3.32,0c6.49-.62,11.51-4.6,12-9.18,4.71.55,8.88,3.16,10.38,6.77a.25.25,0,0,0,.28.15.25.25,0,0,0,.21-.23c.38-4.75-1.26-7.84-5-10.85a21.79,21.79,0,0,0,17.26-.54.25.25,0,0,0,.14-.28.24.24,0,0,0-.24-.2A16.26,16.26,0,0,1,32.38-18c18.25,5.13,33.09-6.2,27.95-23a.26.26,0,0,0-.27-.18.26.26,0,0,0-.23.23c-.92,9.71-7.7,16.12-17.86,17.08A17.47,17.47,0,0,0,53.53-39.48a.25.25,0,0,0-.19-.26.25.25,0,0,0-.29.14,16.75,16.75,0,0,1-14.16,9.81c6.33-2.58,10.4-8.6,11.57-16.42a.25.25,0,0,0-.17-.28.25.25,0,0,0-.3.12c-3.87,7.58-12.16,12.79-22.45,8.81-10.62-4.11-15.27-16.39-16.3-25a.27.27,0,0,0-.24-.22.25.25,0,0,0-.26.2C7-46.93,14.32-30.67,27.38-23.78c-7.1-2-13.44-6.26-17-13.35-8.29-1-14-3.86-16.86-9.24a.24.24,0,0,0-.29-.12.25.25,0,0,0-.18.27c.18,2.11.94,6.33,4.07,8.27-7,0-12.51.89-17.8,3A.19.19,0,0,0-20.86-34.69ZM8.62-88.17a.26.26,0,0,1-.32,0,.24.24,0,0,1,0-.31c1.62-2.8.14-6.81-3-6.81-5.72,0-8.47,10.77-7.6,20.59,2.16-5.76,4-8,7.35-10.79a.24.24,0,0,1,.32,0,.26.26,0,0,1,.06.32A46.53,46.53,0,0,0-.56-61.11c1.46-6,3.2-9.32,8.13-14.38a.24.24,0,0,1,.32,0A.26.26,0,0,1,8-75.2,44.26,44.26,0,0,0,7-40.94a.26.26,0,0,1-.06.28.26.26,0,0,1-.29,0C1.47-43.17-1.58-44.85-6.07-51c1.36-7.4.23-11.05-3.17-17.2,3.94,9.92,1.84,23.89-8.19,29.59a.26.26,0,0,1-.32-.06.25.25,0,0,1,0-.33,17.92,17.92,0,0,0,4.16-17.93c1.53,10.39-7.6,19.12-17.78,19.12-9.6,0-16.15-7.51-15.61-14.94s5.44-11,9.67-12.5a.25.25,0,0,1,.3.1.27.27,0,0,1,0,.32c-5.61,5.69-6.38,16.49,3.58,19.76-5.86-5.06-3.69-16.83,5.69-17.72a.24.24,0,0,1,.26.17.26.26,0,0,1-.1.3,8,8,0,0,0-3.68,6.57c0,4.67,3.42,6.51,5.68,6.51,3.42,0,6.26-3.26,6.26-8.18,0-5.84-5.26-10.68-12-11.44s-12.78,2.15-15.75,6.46a.25.25,0,0,1-.31.09.26.26,0,0,1-.14-.29,17.15,17.15,0,0,1,26.89-9.51c-6.62-7.52-17-7.62-25.73.07a.26.26,0,0,1-.32,0,.24.24,0,0,1-.07-.31c2.67-5.41,9.25-11.82,18.61-10.88,8.56.86,13.52,9,14.52,15.69.56-8.52-1.39-14.54-8.75-20.15a.25.25,0,0,1-.07-.32.26.26,0,0,1,.3-.13c6.79,2,12.23,5.43,15.05,12.54,0-6.16-2.14-12.37-7.53-16.51a.24.24,0,0,1-.07-.31.26.26,0,0,1,.3-.13c3.45,1,6.17,2.49,8.14,5.19C-5-98.46.24-105,6.25-105c4.12,0,7.21,3,7.21,7.87A11.44,11.44,0,0,1,8.62-88.17ZM107.85,3.45c-3.16,3.9-9.54,5.39-16.43,4a22.65,22.65,0,0,1-1.61,11.48.25.25,0,0,1-.48-.12C89.71,10,84.71,3,75.88-.11,82.79,4.65,84.81,14.08,81.52,19a.25.25,0,0,1-.31.09.24.24,0,0,1-.15-.28c.37-2.06-.61-4.68-2.71-6.73-2.91-2.81-6.85-3.45-8.81-1.43s-1.2,5.95,1.71,8.76a9.58,9.58,0,0,0,3.45,2.18.26.26,0,0,1,.17.27.25.25,0,0,1-.23.22c-6.39.55-10.77-3.25-13.52-7.88S53.55,5.75,47.91,6.49a.24.24,0,0,1-.27-.17.26.26,0,0,1,.11-.3,11.05,11.05,0,0,1,9.86-1C51.82.06,43.56-2.77,35.77-.26a.25.25,0,0,1-.29-.1.26.26,0,0,1,0-.31C41.42-7.23,53.2-7.37,60.62-2c-3-4.32-7.07-7.48-14.29-8.48a.25.25,0,0,1-.22-.22.25.25,0,0,1,.16-.27c8.29-3.08,16.6,0,23.45,8.21A26.34,26.34,0,0,0,55-16.81a.25.25,0,0,1-.16-.28A.25.25,0,0,1,55-17.3c3.94-.08,7.49.86,12.27,3.57C63.79-19.42,64.56-29.37,69.67-36a.27.27,0,0,1,.3-.08.25.25,0,0,1,.15.27c-1.18,7.2,1.3,15.33,5.61,19.64a18.16,18.16,0,0,1,5.9-19.64.25.25,0,0,1,.26,0,.24.24,0,0,1,.16.2c1.23,9.42,11.77,19,20.6,19.78a.26.26,0,0,1,.23.24.24.24,0,0,1-.2.26,20.83,20.83,0,0,1-12.39-1,21.89,21.89,0,0,0,9.55,6.25.26.26,0,0,1,.18.27.25.25,0,0,1-.23.22,20.45,20.45,0,0,1-12.73-3.54A31.48,31.48,0,0,0,106.49.32a.27.27,0,0,1,.2.26.27.27,0,0,1-.23.24C94.54,2.12,84.71-2.5,78.24-11.1c1.65,4.9,6.37,9.76,13,12.62C97,4.07,103,4.47,107.61,3a.27.27,0,0,1,.29.1A.39.39,0,0,1,107.85,3.45ZM55-72.12c4.81,10.49,4.46,18.69.59,29.05a.26.26,0,0,1-.29.16.26.26,0,0,1-.2-.26c.62-12.62-2.83-21.65-10.3-27.81C53-61.13,49.1-41.42,35.93-41.42c-9.59,0-17.52-8-19.46-17.52a.25.25,0,0,1,.16-.29.25.25,0,0,1,.31.11c2.84,4.76,7.41,7.85,12.46,7.85,8.13,0,10.54-6.47,10.54-11,0-6.19-4.93-11.34-8.71-11.34a4.93,4.93,0,0,0-5,4.93,8.86,8.86,0,0,0,6.38,8.16.25.25,0,0,1,.18.28.26.26,0,0,1-.25.22,10.46,10.46,0,0,1-9.63-5.57,17.4,17.4,0,0,0,.64,7.72.26.26,0,0,1-.12.3.25.25,0,0,1-.32-.07C15.71-67,19.23-83.27,25.05-90c-5.53,4-10.42,12.63-10.34,24.39a.25.25,0,0,1-.21.25.24.24,0,0,1-.28-.15c-4.11-10.25-1.93-29.25,9.28-39.85a20,20,0,0,0-9.12.69.25.25,0,0,1-.3-.12.25.25,0,0,1,.06-.32c4.08-3.44,9.8-4.53,15.25-4.53-4.7,5.5-3.14,16.55,4.36,16.55,5.35,0,7.78-8.3,3.65-12.78a.26.26,0,0,1,0-.31.25.25,0,0,1,.3-.1c4.78,1.65,9.95,5.79,9.95,11,0,5-4.81,9.39-11.8,9.05,8.82,2.51,18-.27,22.88-6.25a.26.26,0,0,1,.31-.07.25.25,0,0,1,.13.29C56.35-81.52,47.17-77,35.7-78.53,45-74.77,59-78,65.12-85.84a.26.26,0,0,1,.31-.07.26.26,0,0,1,.14.28C64.2-79,60.71-74.07,55-72.12Z"/><path class="cls-3" d="M81.33-52.83a.25.25,0,0,0-.25-.21c-12.91-.14-24.75-3.27-34-11.52,8,5.56,22.94,7.51,31.53,3.62a.25.25,0,0,0,.14-.29.26.26,0,0,0-.25-.2c-10.68.29-19.28-3-26-9,6.87-.42,12.57-4.74,12.56-9.85a.26.26,0,0,0-.2-.25.26.26,0,0,0-.28.14c-1.12,2.49-4.75,3.78-8.58,2.88-4.18-1-7-4.19-6.3-7.17.47-2,2.44-3.4,5-3.79a.26.26,0,0,0,.22-.26.26.26,0,0,0-.23-.25,17.53,17.53,0,0,0-3.32,0c-6.49.62-11.51,4.59-11.95,9.18-4.71-.55-8.88-3.16-10.38-6.77a.25.25,0,0,0-.28-.15.25.25,0,0,0-.21.23c-.38,4.75,1.26,7.84,5,10.85a21.83,21.83,0,0,0-17.26.54.26.26,0,0,0-.14.28.24.24,0,0,0,.24.2,16.26,16.26,0,0,1,11.73,5.07C9.83-74.64-5-63.31.14-46.46a.26.26,0,0,0,.27.18.26.26,0,0,0,.23-.23c.92-9.71,7.7-16.12,17.86-17.08A17.45,17.45,0,0,0,6.94-48.06a.25.25,0,0,0,.19.26.25.25,0,0,0,.29-.14,16.77,16.77,0,0,1,14.16-9.81c-6.33,2.58-10.4,8.6-11.57,16.42a.25.25,0,0,0,.17.28.25.25,0,0,0,.3-.13C14.35-48.76,22.64-54,32.93-50c10.62,4.11,15.27,16.38,16.3,25a.26.26,0,0,0,.24.22.26.26,0,0,0,.26-.2c3.71-15.64-3.59-31.9-16.64-38.79,7.1,2,13.44,6.26,17,13.35,8.29,1,14,3.86,16.86,9.24a.24.24,0,0,0,.29.12.26.26,0,0,0,.18-.27c-.18-2.11-.94-6.33-4.07-8.27,7,0,12.51-.89,17.8-3A.24.24,0,0,0,81.33-52.83ZM51.84.64a.27.27,0,0,1,.32,0,.24.24,0,0,1,0,.31c-1.62,2.8-.14,6.81,3,6.81C61,7.79,63.72-3,62.85-12.8,60.69-7,58.82-4.75,55.5-2a.24.24,0,0,1-.32,0,.26.26,0,0,1-.06-.32A46.5,46.5,0,0,0,61-26.41c-1.46,6-3.2,9.32-8.13,14.38a.24.24,0,0,1-.32,0,.25.25,0,0,1-.09-.31,44.26,44.26,0,0,0,1-34.26.26.26,0,0,1,.06-.28.26.26,0,0,1,.29,0C59-44.34,62-42.66,66.53-36.5c-1.36,7.4-.23,11.05,3.17,17.19-3.94-9.92-1.84-23.89,8.19-29.59a.25.25,0,0,1,.32.06.25.25,0,0,1,0,.33A17.92,17.92,0,0,0,74-30.58C72.5-41,81.63-49.69,91.81-49.69c9.6,0,16.15,7.51,15.61,14.94s-5.44,11-9.67,12.5a.25.25,0,0,1-.3-.1.26.26,0,0,1,0-.31c5.61-5.69,6.38-16.49-3.58-19.76,5.86,5.06,3.69,16.83-5.69,17.72a.24.24,0,0,1-.26-.17.26.26,0,0,1,.1-.3,8,8,0,0,0,3.68-6.57c0-4.67-3.42-6.51-5.68-6.51-3.42,0-6.26,3.26-6.26,8.18,0,5.84,5.26,10.68,12,11.43s12.78-2.15,15.75-6.46a.25.25,0,0,1,.31-.09.25.25,0,0,1,.14.29,17.15,17.15,0,0,1-26.89,9.51c6.61,7.5,17,7.61,25.72-.09a.24.24,0,0,1,.32,0,.24.24,0,0,1,.07.31C104.56-9.77,98-3.36,88.62-4.3,80.06-5.16,75.1-13.32,74.1-20,73.54-11.47,75.49-5.45,82.85.15a.25.25,0,0,1,.07.32.26.26,0,0,1-.3.13c-6.79-2-12.23-5.42-15.05-12.54,0,6.16,2.14,12.37,7.53,16.51a.26.26,0,0,1-.22.45c-3.45-1-6.17-2.49-8.14-5.18-1.31,11.1-6.52,17.69-12.53,17.69-4.12,0-7.21-3-7.21-7.87A11.5,11.5,0,0,1,51.84.64ZM-47.39-91c3.16-3.9,9.54-5.39,16.43-4a22.71,22.71,0,0,1,1.61-11.49.25.25,0,0,1,.29-.14.25.25,0,0,1,.19.26c-.38,8.77,4.62,15.84,13.45,18.91-6.91-4.76-8.93-14.19-5.64-19.06a.25.25,0,0,1,.31-.09.24.24,0,0,1,.16.28c-.37,2.06.61,4.68,2.71,6.72C-15-96.77-11-96.13-9.07-98.15s1.2-5.95-1.71-8.76a9.75,9.75,0,0,0-3.45-2.19.26.26,0,0,1-.17-.27.25.25,0,0,1,.23-.22c6.39-.55,10.77,3.25,13.52,7.88S6.92-93.3,12.56-94a.24.24,0,0,1,.27.17.26.26,0,0,1-.11.3,11.05,11.05,0,0,1-9.86,1c5.79,4.91,14.05,7.74,21.84,5.23a.25.25,0,0,1,.29.1.26.26,0,0,1,0,.31c-5.91,6.56-17.69,6.7-25.11,1.37C2.89-81.19,6.92-78,14.14-77a.25.25,0,0,1,.22.22.26.26,0,0,1-.16.27c-8.29,3.08-16.6,0-23.45-8.22a26.31,26.31,0,0,0,14.77,14,.25.25,0,0,1,.16.28.25.25,0,0,1-.24.21C1.5-70.18-2-71.12-6.83-73.83c3.51,5.69,2.74,15.64-2.37,22.26a.27.27,0,0,1-.3.08.26.26,0,0,1-.15-.28c1.18-7.2-1.3-15.33-5.61-19.64a18.16,18.16,0,0,1-5.9,19.64.25.25,0,0,1-.26,0,.24.24,0,0,1-.16-.2c-1.23-9.42-11.77-19-20.6-19.78a.26.26,0,0,1-.23-.24.24.24,0,0,1,.2-.26,20.83,20.83,0,0,1,12.39,1,21.78,21.78,0,0,0-9.55-6.24.26.26,0,0,1-.18-.27.24.24,0,0,1,.23-.22,20.45,20.45,0,0,1,12.73,3.54A31.48,31.48,0,0,0-46-87.88a.27.27,0,0,1-.2-.26.27.27,0,0,1,.23-.24c11.92-1.3,21.75,3.32,28.22,11.92-1.65-4.9-6.37-9.76-12.95-12.62-5.85-2.55-11.85-3-16.42-1.51a.27.27,0,0,1-.29-.1A.31.31,0,0,1-47.39-91ZM5.52-15.41C.71-25.9,1.06-34.1,4.93-44.46a.25.25,0,0,1,.29-.16.26.26,0,0,1,.2.26C4.8-31.74,8.25-22.71,15.72-16.55c-8.25-9.85-4.35-29.56,8.82-29.56,9.59,0,17.52,8,19.46,17.53a.25.25,0,0,1-.16.29.25.25,0,0,1-.31-.11c-2.84-4.76-7.41-7.85-12.46-7.85-8.13,0-10.54,6.47-10.54,11,0,6.19,4.93,11.34,8.71,11.34a4.93,4.93,0,0,0,5-4.93A8.86,8.86,0,0,0,27.9-27a.25.25,0,0,1-.18-.28A.25.25,0,0,1,28-27.5a10.45,10.45,0,0,1,9.63,5.57A17.4,17.4,0,0,0,37-29.65a.26.26,0,0,1,.12-.3.26.26,0,0,1,.32.07c7.36,9.39,3.84,25.62-2,32.36C41-1.5,45.84-10.15,45.76-21.91a.25.25,0,0,1,.21-.25.25.25,0,0,1,.28.15C50.36-11.76,48.18,7.24,37,17.84a20,20,0,0,0,9.12-.69.26.26,0,0,1,.24.44c-4.09,3.46-9.81,4.54-15.27,4.54,4.7-5.5,3.14-16.55-4.35-16.55-5.35,0-7.78,8.3-3.65,12.78a.26.26,0,0,1,0,.31.25.25,0,0,1-.3.1C18,17.11,12.84,13,12.84,7.75c0-5,4.81-9.39,11.8-9C15.82-3.8,6.59-1,1.76,5A.26.26,0,0,1,1.45,5a.24.24,0,0,1-.13-.29C4.11-6,13.29-10.47,24.76-9,15.48-12.74,1.51-9.46-4.66-1.67A.26.26,0,0,1-5-1.6a.26.26,0,0,1-.14-.28C-3.73-8.51-.24-13.45,5.52-15.41Z"/><path class="cls-2" d="M87.47,75a.25.25,0,0,0,.25.21c12.91.13,24.75,3.27,34,11.51-8-5.56-22.94-7.51-31.53-3.62a.25.25,0,0,0-.14.29.26.26,0,0,0,.25.2c10.68-.29,19.28,3,26,9-6.87.42-12.57,4.74-12.56,9.84a.26.26,0,0,0,.2.25.25.25,0,0,0,.28-.14c1.12-2.49,4.75-3.78,8.58-2.88,4.18,1,7,4.19,6.3,7.17-.47,2-2.44,3.4-5,3.79a.26.26,0,0,0,0,.51,17.53,17.53,0,0,0,3.32,0c6.49-.62,11.51-4.6,11.95-9.18,4.71.55,8.88,3.16,10.38,6.77a.25.25,0,0,0,.28.15.25.25,0,0,0,.21-.23c.38-4.75-1.26-7.84-5-10.85a21.79,21.79,0,0,0,17.26-.54.25.25,0,0,0,.14-.28.24.24,0,0,0-.24-.2,16.26,16.26,0,0,1-11.73-5.07c18.25,5.13,33.09-6.2,27.95-23a.26.26,0,0,0-.27-.18.26.26,0,0,0-.23.23c-.92,9.71-7.7,16.12-17.86,17.08a17.47,17.47,0,0,0,11.56-15.53.25.25,0,0,0-.48-.12,16.75,16.75,0,0,1-14.16,9.81c6.33-2.58,10.4-8.6,11.57-16.42a.25.25,0,0,0-.47-.16c-3.87,7.58-12.16,12.79-22.45,8.81C125.25,68,120.6,55.69,119.57,47a.27.27,0,0,0-.24-.22.25.25,0,0,0-.26.2c-3.72,15.69,3.58,31.95,16.64,38.84-7.1-2-13.44-6.26-17-13.35-8.29-1-14-3.86-16.86-9.24a.24.24,0,0,0-.29-.12.25.25,0,0,0-.18.27c.18,2.11.94,6.33,4.07,8.27-7,0-12.51.89-17.8,3A.21.21,0,0,0,87.47,75ZM117,21.48a.26.26,0,0,1-.32,0,.24.24,0,0,1,0-.31c1.62-2.8.14-6.81-3-6.81-5.72,0-8.47,10.77-7.6,20.59,2.16-5.76,4-8,7.35-10.79a.24.24,0,0,1,.32,0,.26.26,0,0,1,.06.32,46.53,46.53,0,0,0-5.9,24.09c1.46-6,3.2-9.32,8.13-14.38a.24.24,0,0,1,.32,0,.26.26,0,0,1,.09.32,44.26,44.26,0,0,0-.95,34.26.26.26,0,0,1-.06.28.26.26,0,0,1-.29,0c-5.21-2.55-8.26-4.23-12.75-10.39,1.36-7.4.23-11-3.17-17.2C103,51.36,100.94,65.33,90.91,71a.26.26,0,0,1-.32-.06.25.25,0,0,1,0-.33,17.92,17.92,0,0,0,4.16-17.93C96.3,63.1,87.17,71.83,77,71.83c-9.6,0-16.15-7.51-15.61-14.94s5.44-11,9.67-12.5a.25.25,0,0,1,.3.1.27.27,0,0,1,0,.32C65.71,50.5,64.94,61.3,74.9,64.57,69,59.51,71.21,47.74,80.59,46.85a.24.24,0,0,1,.26.17.26.26,0,0,1-.1.3,8,8,0,0,0-3.68,6.57c0,4.67,3.42,6.51,5.68,6.51,3.42,0,6.26-3.26,6.26-8.18,0-5.84-5.26-10.68-12-11.44s-12.78,2.15-15.75,6.46a.25.25,0,0,1-.31.09.26.26,0,0,1-.14-.29,17.15,17.15,0,0,1,26.89-9.51c-6.61-7.5-17-7.61-25.72.09a.26.26,0,0,1-.32,0,.24.24,0,0,1-.07-.31c2.67-5.41,9.25-11.82,18.61-10.88,8.56.86,13.52,9,14.52,15.69C95.26,33.61,93.31,27.59,86,22a.25.25,0,0,1-.07-.32.26.26,0,0,1,.3-.13c6.79,2,12.23,5.43,15,12.54,0-6.16-2.14-12.37-7.53-16.51a.24.24,0,0,1-.07-.31.28.28,0,0,1,.3-.13c3.45,1,6.17,2.49,8.14,5.19,1.31-11.1,6.52-17.69,12.52-17.69,4.12,0,7.21,3,7.21,7.87A11.49,11.49,0,0,1,117,21.48Zm99.23,91.62c-3.16,3.9-9.54,5.39-16.43,4a22.65,22.65,0,0,1-1.61,11.48.25.25,0,0,1-.48-.12c.38-8.77-4.62-15.84-13.45-18.91,6.91,4.76,8.93,14.19,5.64,19.07a.25.25,0,0,1-.31.09.24.24,0,0,1-.15-.28c.37-2.06-.61-4.68-2.71-6.73-2.91-2.81-6.85-3.45-8.81-1.43s-1.2,5.95,1.71,8.76A9.58,9.58,0,0,0,183,131.2a.26.26,0,0,1,.17.27.25.25,0,0,1-.23.22c-6.39.55-10.77-3.25-13.52-7.88s-7.57-8.41-13.21-7.67A.24.24,0,0,1,156,116a.26.26,0,0,1,.11-.3,11.05,11.05,0,0,1,9.86-1c-5.79-4.91-14-7.74-21.84-5.23a.25.25,0,0,1-.29-.1.26.26,0,0,1,0-.31c5.91-6.56,17.69-6.7,25.11-1.37-3-4.32-7.07-7.48-14.29-8.48a.25.25,0,0,1-.06-.49c8.29-3.08,16.6,0,23.45,8.21a26.34,26.34,0,0,0-14.77-14,.25.25,0,0,1,.08-.49c3.94-.08,7.49.86,12.27,3.57-3.51-5.69-2.74-15.64,2.37-22.26a.27.27,0,0,1,.3-.08.25.25,0,0,1,.15.27c-1.18,7.2,1.3,15.33,5.61,19.64A18.16,18.16,0,0,1,190,73.85a.25.25,0,0,1,.26,0,.24.24,0,0,1,.16.2c1.23,9.42,11.77,19,20.6,19.78a.26.26,0,0,1,.23.24.24.24,0,0,1-.2.26,20.83,20.83,0,0,1-12.39-1,21.87,21.87,0,0,0,9.56,6.25.26.26,0,0,1,.18.27.25.25,0,0,1-.23.22,20.45,20.45,0,0,1-12.73-3.54A31.48,31.48,0,0,0,214.84,110a.25.25,0,0,1,0,.5c-11.92,1.3-21.75-3.32-28.22-11.92,1.65,4.9,6.37,9.76,12.95,12.62,5.85,2.54,11.85,3,16.42,1.51a.27.27,0,0,1,.29.1A.45.45,0,0,1,216.19,113.1ZM163.28,37.52c4.81,10.49,4.46,18.69.59,29a.25.25,0,0,1-.49-.1c.62-12.62-2.83-21.65-10.3-27.81,8.25,9.85,4.35,29.56-8.82,29.56-9.59,0-17.52-8-19.46-17.52a.26.26,0,0,1,.47-.18c2.84,4.76,7.41,7.85,12.46,7.85,8.13,0,10.54-6.47,10.54-11,0-6.19-4.93-11.34-8.71-11.34a4.93,4.93,0,0,0-5,4.93,8.86,8.86,0,0,0,6.38,8.16.25.25,0,0,1,.18.28.26.26,0,0,1-.25.22,10.46,10.46,0,0,1-9.63-5.57,17.4,17.4,0,0,0,.64,7.72.26.26,0,0,1-.12.3.25.25,0,0,1-.32-.07c-7.36-9.39-3.84-25.62,2-32.36C127.85,23.62,123,32.27,123,44a.25.25,0,0,1-.21.25.24.24,0,0,1-.28-.15c-4.11-10.25-1.93-29.25,9.28-39.85a20,20,0,0,0-9.12.69.26.26,0,0,1-.24-.44C126.56,1.07,132.28,0,137.74,0c-4.7,5.5-3.14,16.55,4.36,16.55,5.35,0,7.78-8.3,3.65-12.78a.26.26,0,0,1,0-.31.25.25,0,0,1,.3-.1C150.8,5,156,9.14,156,14.37c0,5-4.81,9.39-11.8,9.05,8.82,2.51,18.05-.27,22.88-6.25a.26.26,0,0,1,.31-.07.25.25,0,0,1,.13.29c-2.79,10.72-12,15.2-23.44,13.71,9.28,3.76,23.25.48,29.42-7.31a.26.26,0,0,1,.31-.07.26.26,0,0,1,.14.28C172.54,30.62,169,35.57,163.28,37.52Z"/><path class="cls-3" d="M189.67,56.81a.25.25,0,0,0-.25-.21c-12.91-.14-24.75-3.27-34-11.52,8,5.56,22.94,7.51,31.53,3.62a.25.25,0,0,0,.14-.29.26.26,0,0,0-.25-.2c-10.68.29-19.28-3-26-9,6.87-.42,12.57-4.74,12.56-9.85a.26.26,0,0,0-.2-.25.26.26,0,0,0-.28.14c-1.12,2.49-4.75,3.78-8.58,2.88-4.18-1-7-4.19-6.3-7.17.47-2,2.44-3.4,4.95-3.79a.26.26,0,0,0,0-.51,17.53,17.53,0,0,0-3.32,0c-6.49.62-11.51,4.59-12,9.18-4.71-.55-8.88-3.16-10.38-6.77a.25.25,0,0,0-.28-.15.25.25,0,0,0-.21.23c-.38,4.75,1.26,7.84,5,10.85a21.83,21.83,0,0,0-17.26.54.26.26,0,0,0-.14.28.24.24,0,0,0,.24.2,16.26,16.26,0,0,1,11.73,5.07c-18.26-5.13-33.09,6.2-28,23a.26.26,0,0,0,.27.18.26.26,0,0,0,.23-.23c.92-9.71,7.7-16.12,17.86-17.08a17.45,17.45,0,0,0-11.56,15.53.25.25,0,0,0,.48.12,16.77,16.77,0,0,1,14.16-9.81c-6.33,2.58-10.4,8.6-11.57,16.42a.25.25,0,0,0,.17.28.25.25,0,0,0,.3-.13c3.87-7.58,12.16-12.79,22.45-8.81,10.62,4.11,15.27,16.38,16.3,25a.25.25,0,0,0,.5,0c3.72-15.69-3.58-31.95-16.64-38.84,7.1,2,13.44,6.26,17,13.35,8.29,1,14,3.86,16.86,9.24a.24.24,0,0,0,.29.12.26.26,0,0,0,.18-.27c-.18-2.11-.94-6.33-4.07-8.27,7,0,12.51-.89,17.8-3C189.62,57.05,189.69,56.93,189.67,56.81Zm-29.49,53.47a.27.27,0,0,1,.32,0,.24.24,0,0,1,0,.31c-1.62,2.8-.14,6.81,3.05,6.81,5.72,0,8.47-10.77,7.6-20.59-2.16,5.75-4,8-7.35,10.79a.24.24,0,0,1-.32,0,.26.26,0,0,1-.06-.32,46.5,46.5,0,0,0,5.9-24.08c-1.46,6-3.2,9.32-8.13,14.38a.24.24,0,0,1-.32,0,.25.25,0,0,1-.09-.31,44.26,44.26,0,0,0,1-34.26.26.26,0,0,1,.06-.28.26.26,0,0,1,.29,0c5.21,2.55,8.26,4.23,12.75,10.39-1.36,7.4-.23,11,3.17,17.19-3.94-9.92-1.84-23.89,8.19-29.59a.25.25,0,0,1,.3.39,17.92,17.92,0,0,0-4.16,17.93C180.84,68.67,190,60,200.15,60c9.6,0,16.15,7.51,15.61,14.94s-5.44,11-9.67,12.5a.25.25,0,0,1-.3-.1.26.26,0,0,1,0-.31c5.61-5.69,6.38-16.49-3.58-19.76,5.86,5.06,3.69,16.83-5.69,17.72a.24.24,0,0,1-.26-.17.24.24,0,0,1,.1-.29,8,8,0,0,0,3.68-6.57c0-4.67-3.42-6.51-5.68-6.51-3.42,0-6.26,3.26-6.26,8.18,0,5.84,5.26,10.68,12,11.43s12.78-2.15,15.75-6.46a.25.25,0,0,1,.31-.09.25.25,0,0,1,.14.29,17.15,17.15,0,0,1-26.89,9.51c6.61,7.5,17,7.61,25.72-.09a.24.24,0,0,1,.32,0,.24.24,0,0,1,.07.31c-2.67,5.41-9.25,11.82-18.61,10.88-8.56-.86-13.52-9-14.52-15.69-.56,8.52,1.39,14.54,8.75,20.14a.25.25,0,0,1,.07.32.26.26,0,0,1-.3.13c-6.79-2-12.23-5.42-15.05-12.54,0,6.16,2.14,12.37,7.53,16.51a.26.26,0,0,1-.22.45c-3.45-1-6.17-2.49-8.14-5.18-1.31,11.1-6.52,17.69-12.53,17.69-4.12,0-7.21-3-7.21-7.87A11.5,11.5,0,0,1,160.18,110.28ZM61,18.66c3.16-3.9,9.54-5.39,16.43-4A22.71,22.71,0,0,1,79,3.18a.25.25,0,0,1,.48.12c-.38,8.77,4.62,15.84,13.45,18.91C86,17.45,84,8,87.28,3.15a.25.25,0,0,1,.31-.09.24.24,0,0,1,.15.28c-.37,2.06.61,4.68,2.71,6.72,2.91,2.81,6.85,3.45,8.81,1.43s1.2-5.95-1.71-8.76A9.75,9.75,0,0,0,94.1.54a.26.26,0,0,1-.17-.27.25.25,0,0,1,.23-.22c6.39-.55,10.77,3.25,13.52,7.88s7.57,8.41,13.21,7.67a.24.24,0,0,1,.27.17.26.26,0,0,1-.11.3,11.05,11.05,0,0,1-9.86,1.05c5.79,4.91,14,7.74,21.84,5.23a.25.25,0,0,1,.29.1.26.26,0,0,1,0,.31c-5.91,6.56-17.69,6.7-25.11,1.37,3,4.32,7.07,7.49,14.29,8.48a.25.25,0,0,1,.22.22.26.26,0,0,1-.16.27c-8.29,3.08-16.6,0-23.45-8.22a26.31,26.31,0,0,0,14.77,14,.25.25,0,0,1-.08.49c-3.94.08-7.49-.86-12.26-3.57,3.51,5.69,2.74,15.64-2.37,22.26a.27.27,0,0,1-.3.08.26.26,0,0,1-.15-.28c1.18-7.2-1.3-15.33-5.61-19.64a18.16,18.16,0,0,1-5.9,19.64.25.25,0,0,1-.26,0,.24.24,0,0,1-.16-.2c-1.23-9.42-11.77-19-20.6-19.78a.26.26,0,0,1-.23-.24.24.24,0,0,1,.2-.26,20.83,20.83,0,0,1,12.39,1A21.78,21.78,0,0,0,69,32.22a.26.26,0,0,1-.18-.27.24.24,0,0,1,.23-.22,20.45,20.45,0,0,1,12.73,3.54A31.48,31.48,0,0,0,62.32,21.76a.25.25,0,0,1,0-.5C74.27,20,84.1,24.58,90.57,33.18c-1.65-4.9-6.37-9.76-12.95-12.62C71.77,18,65.77,17.61,61.2,19.05a.27.27,0,0,1-.29-.1A.31.31,0,0,1,61,18.66Zm52.91,75.57c-4.81-10.49-4.46-18.69-.59-29a.25.25,0,0,1,.29-.16.26.26,0,0,1,.2.26c-.62,12.62,2.83,21.65,10.3,27.81-8.25-9.85-4.35-29.56,8.82-29.56,9.59,0,17.52,8,19.46,17.53a.26.26,0,0,1-.47.18c-2.84-4.76-7.41-7.85-12.46-7.85-8.13,0-10.54,6.47-10.54,11,0,6.19,4.93,11.34,8.71,11.34a4.93,4.93,0,0,0,5-4.93,8.86,8.86,0,0,0-6.38-8.16.25.25,0,0,1-.18-.28.26.26,0,0,1,.25-.22,10.45,10.45,0,0,1,9.63,5.57A17.4,17.4,0,0,0,145.3,80a.26.26,0,0,1,.12-.3.26.26,0,0,1,.32.07c7.36,9.39,3.84,25.62-2,32.36,5.53-4,10.42-12.63,10.34-24.39a.26.26,0,0,1,.49-.1c4.11,10.25,1.93,29.25-9.28,39.85a20,20,0,0,0,9.12-.69.26.26,0,0,1,.24.44c-4.09,3.46-9.81,4.54-15.27,4.54,4.7-5.5,3.14-16.55-4.35-16.55-5.35,0-7.78,8.3-3.65,12.78a.26.26,0,0,1,0,.31.25.25,0,0,1-.3.1c-4.78-1.66-9.95-5.79-9.95-11,0-5,4.81-9.39,11.8-9-8.82-2.5-18,.27-22.88,6.25a.26.26,0,0,1-.31.07.24.24,0,0,1-.13-.29c2.79-10.71,12-15.2,23.44-13.71-9.28-3.76-23.25-.48-29.42,7.31a.26.26,0,0,1-.31.07.26.26,0,0,1-.14-.28C104.61,101.13,108.1,96.19,113.86,94.23Z"/><path class="cls-2" d="M-20.86,75a.25.25,0,0,0,.25.21c12.91.13,24.75,3.27,34,11.51-8-5.56-22.94-7.51-31.53-3.62a.25.25,0,0,0-.14.29.26.26,0,0,0,.25.2c10.68-.29,19.28,3,26,9-6.87.42-12.57,4.74-12.56,9.84a.26.26,0,0,0,.2.25.25.25,0,0,0,.28-.14C-3,100,.59,98.67,4.42,99.57c4.18,1,7,4.19,6.3,7.17-.47,2-2.44,3.4-5,3.79a.26.26,0,0,0,0,.51,17.53,17.53,0,0,0,3.32,0c6.49-.62,11.51-4.6,12-9.18,4.71.55,8.88,3.16,10.38,6.77a.25.25,0,0,0,.28.15.25.25,0,0,0,.21-.23c.38-4.75-1.26-7.84-5-10.85a21.79,21.79,0,0,0,17.26-.54.25.25,0,0,0,.14-.28.24.24,0,0,0-.24-.2,16.26,16.26,0,0,1-11.73-5.07c18.25,5.13,33.09-6.2,27.95-23a.26.26,0,0,0-.27-.18.26.26,0,0,0-.23.23c-.92,9.71-7.7,16.12-17.86,17.08A17.47,17.47,0,0,0,53.53,70.16a.25.25,0,0,0-.48-.12,16.75,16.75,0,0,1-14.16,9.81c6.33-2.58,10.4-8.6,11.57-16.42a.25.25,0,0,0-.47-.16c-3.87,7.58-12.16,12.79-22.45,8.81C16.92,68,12.27,55.69,11.24,47a.27.27,0,0,0-.24-.22.25.25,0,0,0-.26.2C7,62.71,14.32,79,27.38,85.86c-7.1-2-13.44-6.26-17-13.35-8.29-1-14-3.86-16.86-9.24a.24.24,0,0,0-.29-.12.25.25,0,0,0-.18.27c.18,2.11.94,6.33,4.07,8.27-7,0-12.51.89-17.8,3A.19.19,0,0,0-20.86,75ZM8.62,21.48a.26.26,0,0,1-.32,0,.24.24,0,0,1,0-.31c1.62-2.8.14-6.81-3-6.81-5.72,0-8.47,10.77-7.6,20.59,2.16-5.76,4-8,7.35-10.79a.24.24,0,0,1,.32,0,.26.26,0,0,1,.06.32A46.53,46.53,0,0,0-.56,48.54c1.46-6,3.2-9.32,8.13-14.38a.24.24,0,0,1,.32,0,.26.26,0,0,1,.09.32A44.26,44.26,0,0,0,7,68.71.26.26,0,0,1,7,69a.26.26,0,0,1-.29,0C1.47,66.48-1.58,64.8-6.07,58.64c1.36-7.4.23-11-3.17-17.2C-5.3,51.36-7.4,65.33-17.43,71a.26.26,0,0,1-.32-.06.25.25,0,0,1,0-.33,17.92,17.92,0,0,0,4.16-17.93C-12,63.1-21.17,71.83-31.35,71.83c-9.6,0-16.15-7.51-15.61-14.94s5.44-11,9.67-12.5a.25.25,0,0,1,.3.1.27.27,0,0,1,0,.32c-5.61,5.69-6.38,16.49,3.58,19.76-5.86-5.06-3.69-16.83,5.69-17.72a.24.24,0,0,1,.26.17.26.26,0,0,1-.1.3,8,8,0,0,0-3.68,6.57c0,4.67,3.42,6.51,5.68,6.51,3.42,0,6.26-3.26,6.26-8.18,0-5.84-5.26-10.68-12-11.44s-12.78,2.15-15.75,6.46a.25.25,0,0,1-.31.09.26.26,0,0,1-.14-.29,17.15,17.15,0,0,1,26.89-9.51c-6.61-7.5-17-7.61-25.72.09a.26.26,0,0,1-.32,0,.24.24,0,0,1-.07-.31c2.67-5.41,9.25-11.82,18.61-10.88,8.56.86,13.52,9,14.52,15.69C-13.08,33.61-15,27.59-22.39,22a.25.25,0,0,1-.07-.32.26.26,0,0,1,.3-.13c6.79,2,12.23,5.43,15.05,12.54,0-6.16-2.14-12.37-7.53-16.51a.24.24,0,0,1-.07-.31.26.26,0,0,1,.3-.13c3.45,1,6.17,2.49,8.14,5.19C-5,11.21.25,4.62,6.26,4.62c4.12,0,7.21,3,7.21,7.87A11.5,11.5,0,0,1,8.62,21.48Zm99.23,91.62c-3.16,3.9-9.54,5.39-16.43,4a22.65,22.65,0,0,1-1.61,11.48.25.25,0,0,1-.48-.12c.38-8.77-4.62-15.84-13.45-18.91,6.91,4.76,8.93,14.19,5.64,19.07a.25.25,0,0,1-.31.09.24.24,0,0,1-.15-.28c.37-2.06-.61-4.68-2.71-6.73-2.91-2.81-6.85-3.45-8.81-1.43s-1.2,5.95,1.71,8.76a9.58,9.58,0,0,0,3.45,2.18.26.26,0,0,1,.17.27.25.25,0,0,1-.23.22c-6.39.55-10.77-3.25-13.52-7.88s-7.57-8.41-13.21-7.67a.24.24,0,0,1-.27-.17.26.26,0,0,1,.11-.3,11.05,11.05,0,0,1,9.86-1c-5.79-4.91-14-7.74-21.84-5.23a.25.25,0,0,1-.29-.1.26.26,0,0,1,0-.31c5.91-6.56,17.69-6.7,25.11-1.37-3-4.32-7.07-7.48-14.29-8.48a.25.25,0,0,1-.06-.49c8.29-3.08,16.6,0,23.45,8.21A26.34,26.34,0,0,0,55,92.84a.25.25,0,0,1,.08-.49c3.94-.08,7.49.86,12.27,3.57-3.51-5.69-2.74-15.64,2.37-22.26a.27.27,0,0,1,.3-.08.25.25,0,0,1,.15.27c-1.18,7.2,1.3,15.33,5.61,19.64a18.16,18.16,0,0,1,5.9-19.64.25.25,0,0,1,.26,0,.24.24,0,0,1,.16.2c1.23,9.42,11.77,19,20.6,19.78a.26.26,0,0,1,.23.24.24.24,0,0,1-.2.26,20.83,20.83,0,0,1-12.39-1,21.89,21.89,0,0,0,9.55,6.25.26.26,0,0,1,.18.27.25.25,0,0,1-.23.22,20.45,20.45,0,0,1-12.73-3.54A31.48,31.48,0,0,0,106.49,110a.25.25,0,0,1,0,.5c-11.92,1.3-21.75-3.32-28.22-11.92,1.65,4.9,6.37,9.76,13,12.62,5.85,2.54,11.85,3,16.42,1.51a.27.27,0,0,1,.29.1A.4.4,0,0,1,107.85,113.1ZM55,37.52c4.81,10.49,4.46,18.69.59,29a.25.25,0,0,1-.49-.1c.62-12.62-2.83-21.65-10.3-27.81C53,48.51,49.1,68.22,35.93,68.22c-9.59,0-17.52-8-19.46-17.52a.26.26,0,0,1,.47-.18c2.84,4.76,7.41,7.85,12.46,7.85,8.13,0,10.54-6.47,10.54-11C39.94,41.18,35,36,31.23,36a4.93,4.93,0,0,0-5,4.93,8.86,8.86,0,0,0,6.38,8.16.25.25,0,0,1,.18.28.26.26,0,0,1-.25.22,10.46,10.46,0,0,1-9.63-5.57,17.4,17.4,0,0,0,.64,7.72.26.26,0,0,1-.12.3.25.25,0,0,1-.32-.07c-7.36-9.39-3.84-25.62,2-32.36-5.53,4-10.42,12.63-10.34,24.39a.25.25,0,0,1-.21.25.24.24,0,0,1-.28-.15C10.11,33.88,12.29,14.88,23.5,4.28A20,20,0,0,0,14.38,5a.26.26,0,0,1-.24-.44C18.23,1.07,24,0,29.41,0c-4.7,5.5-3.14,16.55,4.36,16.55,5.35,0,7.78-8.3,3.65-12.78a.26.26,0,0,1,0-.31.25.25,0,0,1,.3-.1c4.78,1.65,10,5.79,10,11,0,5-4.81,9.39-11.8,9.05,8.82,2.51,18-.27,22.88-6.25A.26.26,0,0,1,59,17.1a.25.25,0,0,1,.13.29c-2.79,10.72-12,15.2-23.44,13.71C45,34.86,59,31.58,65.14,23.79a.26.26,0,0,1,.31-.07.26.26,0,0,1,.14.28C64.2,30.62,60.71,35.57,55,37.52Z"/><path class="cls-3" d="M81.33,56.81a.25.25,0,0,0-.25-.21c-12.91-.14-24.75-3.27-34-11.52,8,5.56,22.94,7.51,31.53,3.62a.25.25,0,0,0,.14-.29.26.26,0,0,0-.25-.2c-10.68.29-19.28-3-26-9,6.87-.42,12.57-4.74,12.56-9.85a.26.26,0,0,0-.2-.25.26.26,0,0,0-.28.14c-1.12,2.49-4.75,3.78-8.58,2.88-4.18-1-7-4.19-6.3-7.17.47-2,2.44-3.4,5-3.79a.26.26,0,0,0,0-.51,17.53,17.53,0,0,0-3.32,0c-6.49.62-11.51,4.59-11.95,9.18-4.71-.55-8.88-3.16-10.38-6.77a.25.25,0,0,0-.28-.15.25.25,0,0,0-.21.23c-.38,4.75,1.26,7.84,5,10.85a21.83,21.83,0,0,0-17.26.54.26.26,0,0,0-.14.28.24.24,0,0,0,.24.2,16.26,16.26,0,0,1,11.73,5.07C9.83,35-5,46.33.14,63.18a.26.26,0,0,0,.27.18.26.26,0,0,0,.23-.23C1.56,53.42,8.34,47,18.5,46.05A17.45,17.45,0,0,0,6.94,61.58a.25.25,0,0,0,.48.12,16.77,16.77,0,0,1,14.16-9.81c-6.33,2.58-10.4,8.6-11.57,16.42a.25.25,0,0,0,.17.28.25.25,0,0,0,.3-.13c3.87-7.58,12.16-12.79,22.45-8.81,10.62,4.11,15.27,16.38,16.3,25a.25.25,0,0,0,.5,0C53.45,69,46.15,52.76,33.09,45.87c7.1,2,13.44,6.26,17,13.35,8.29,1,14,3.86,16.86,9.24a.24.24,0,0,0,.29.12.26.26,0,0,0,.18-.27C67.27,66.2,66.51,62,63.38,60c7,0,12.51-.89,17.8-3C81.29,57.05,81.35,56.93,81.33,56.81ZM51.84,110.28a.27.27,0,0,1,.32,0,.24.24,0,0,1,0,.31c-1.62,2.8-.14,6.81,3,6.81,5.72,0,8.47-10.77,7.6-20.59-2.16,5.75-4,8-7.35,10.79a.24.24,0,0,1-.32,0,.26.26,0,0,1-.06-.32A46.5,46.5,0,0,0,61,83.23c-1.46,6-3.2,9.32-8.13,14.38a.24.24,0,0,1-.32,0,.25.25,0,0,1-.09-.31,44.26,44.26,0,0,0,1-34.26.26.26,0,0,1,.06-.28.26.26,0,0,1,.29,0C59,65.3,62,67,66.53,73.14c-1.36,7.4-.23,11,3.17,17.19-3.94-9.92-1.84-23.89,8.19-29.59a.25.25,0,0,1,.3.39A17.92,17.92,0,0,0,74,79.06C72.5,68.67,81.63,60,91.81,60c9.6,0,16.15,7.51,15.61,14.94s-5.44,11-9.67,12.5a.25.25,0,0,1-.3-.1.26.26,0,0,1,0-.31c5.61-5.69,6.38-16.49-3.58-19.76,5.86,5.06,3.69,16.83-5.69,17.72a.24.24,0,0,1-.26-.17.24.24,0,0,1,.1-.29,8,8,0,0,0,3.68-6.57c0-4.67-3.42-6.51-5.68-6.51-3.42,0-6.26,3.26-6.26,8.18,0,5.84,5.26,10.68,12,11.43s12.78-2.15,15.75-6.46a.25.25,0,0,1,.31-.09.25.25,0,0,1,.14.29,17.15,17.15,0,0,1-26.89,9.51c6.61,7.5,17,7.61,25.72-.09a.24.24,0,0,1,.32,0,.24.24,0,0,1,.07.31c-2.67,5.41-9.25,11.82-18.61,10.88-8.56-.86-13.52-9-14.52-15.69-.56,8.52,1.39,14.54,8.75,20.14a.25.25,0,0,1,.07.32.26.26,0,0,1-.3.13c-6.79-2-12.23-5.42-15.05-12.54,0,6.16,2.14,12.37,7.53,16.51a.26.26,0,0,1-.22.45c-3.45-1-6.17-2.49-8.14-5.18-1.31,11.1-6.52,17.69-12.53,17.69-4.12,0-7.21-3-7.21-7.87A11.5,11.5,0,0,1,51.84,110.28ZM-47.39,18.66c3.16-3.9,9.54-5.39,16.43-4A22.71,22.71,0,0,1-29.35,3.18.25.25,0,0,1-29.06,3a.25.25,0,0,1,.19.26c-.38,8.77,4.62,15.84,13.45,18.91C-22.33,17.45-24.35,8-21.06,3.15a.25.25,0,0,1,.31-.09.24.24,0,0,1,.15.28C-21,5.4-20,8-17.89,10.06-15,12.87-11,13.51-9.08,11.49s1.2-5.95-1.71-8.76A9.75,9.75,0,0,0-14.24.54a.26.26,0,0,1-.17-.27.25.25,0,0,1,.23-.22C-7.79-.5-3.41,3.3-.66,7.93s7.57,8.41,13.21,7.67a.24.24,0,0,1,.27.17.26.26,0,0,1-.11.3,11.05,11.05,0,0,1-9.86,1.05C8.64,22,16.9,24.86,24.69,22.35a.25.25,0,0,1,.29.1.26.26,0,0,1,0,.31C19,29.32,7.26,29.46-.16,24.13c3,4.32,7.07,7.49,14.29,8.48a.25.25,0,0,1,.22.22.26.26,0,0,1-.16.27c-8.29,3.08-16.6,0-23.45-8.22a26.31,26.31,0,0,0,14.77,14,.25.25,0,0,1-.08.49c-3.94.08-7.49-.86-12.27-3.57C-3.33,41.5-4.1,51.45-9.21,58.07a.27.27,0,0,1-.3.08.26.26,0,0,1-.15-.28c1.18-7.2-1.3-15.33-5.61-19.64a18.16,18.16,0,0,1-5.9,19.64.25.25,0,0,1-.26,0,.24.24,0,0,1-.16-.2c-1.23-9.42-11.77-19-20.6-19.78a.26.26,0,0,1-.23-.24.24.24,0,0,1,.2-.26,20.83,20.83,0,0,1,12.39,1,21.78,21.78,0,0,0-9.55-6.24.26.26,0,0,1-.18-.27.24.24,0,0,1,.23-.22A20.45,20.45,0,0,1-26.6,35.27,31.48,31.48,0,0,0-46,21.76a.27.27,0,0,1-.2-.26.27.27,0,0,1,.23-.24c11.92-1.3,21.75,3.32,28.22,11.92-1.65-4.9-6.37-9.76-12.95-12.62-5.85-2.54-11.85-2.95-16.42-1.51a.27.27,0,0,1-.29-.1A.35.35,0,0,1-47.39,18.66ZM5.52,94.23c-4.81-10.49-4.46-18.69-.59-29A.25.25,0,0,1,5.22,65a.26.26,0,0,1,.2.26C4.8,77.9,8.25,86.93,15.72,93.09c-8.25-9.85-4.35-29.56,8.82-29.56,9.59,0,17.52,8,19.46,17.53a.26.26,0,0,1-.47.18c-2.84-4.76-7.41-7.85-12.46-7.85-8.13,0-10.54,6.47-10.54,11,0,6.19,4.93,11.34,8.71,11.34a4.93,4.93,0,0,0,5-4.93,8.86,8.86,0,0,0-6.38-8.16.25.25,0,0,1-.18-.28.25.25,0,0,1,.25-.22,10.45,10.45,0,0,1,9.63,5.57A17.4,17.4,0,0,0,37,80a.26.26,0,0,1,.12-.3.26.26,0,0,1,.32.07c7.36,9.39,3.84,25.62-2,32.36,5.53-4,10.42-12.63,10.34-24.39a.26.26,0,0,1,.49-.1c4.11,10.25,1.93,29.25-9.28,39.85a20,20,0,0,0,9.12-.69.26.26,0,0,1,.24.44c-4.09,3.46-9.81,4.54-15.27,4.54,4.7-5.5,3.14-16.55-4.35-16.55-5.35,0-7.78,8.3-3.65,12.78a.26.26,0,0,1,0,.31.25.25,0,0,1-.3.1c-4.78-1.66-9.95-5.79-9.95-11,0-5,4.81-9.39,11.8-9-8.82-2.5-18,.27-22.88,6.25a.26.26,0,0,1-.31.07.24.24,0,0,1-.13-.29c2.79-10.71,12-15.2,23.44-13.71C15.48,96.9,1.51,100.18-4.66,108A.26.26,0,0,1-5,108a.26.26,0,0,1-.14-.28C-3.73,101.13-.24,96.19,5.52,94.23Z"/></pattern></defs><text class="cls-4" transform="translate(1 165.78) scale(1.04 1)">MimiShop</text><text class="cls-5" transform="translate(1 165.78) scale(1.04 1)">MimiShop</text></svg>