<?xml version="1.0" encoding="utf-8"?>
<!-- Generator: Adobe Illustrator 25.0.1, SVG Export Plug-In . SVG Version: 6.00 Build 0)  -->
<svg version="1.1" id="Layer_1" xmlns="http://www.w3.org/2000/svg" xmlns:xlink="http://www.w3.org/1999/xlink" x="0px" y="0px"
	 viewBox="0 0 927 224" style="enable-background:new 0 0 927 224;" xml:space="preserve">
<style type="text/css">
	.st0{fill:none;}
	.st1{fill:#00427E;}
	.st2{opacity:0.4;fill:#9DDCF9;enable-background:new    ;}
	.st3{fill:url(#SVGID_1_);}
	.st4{font-family:'Vivaldii';}
	.st5{font-size:196.5197px;}
	.st6{stroke:#FFFF33;stroke-width:2;stroke-miterlimit:10;}
</style>
<pattern  y="224" width="108.3" height="109.6" patternUnits="userSpaceOnUse" id="Jive" viewBox="47.6 -131.8 108.3 109.6" style="overflow:visible;">
	<g>
		<rect x="47.6" y="-131.8" class="st0" width="108.3" height="109.6"/>
		<g>
			<rect x="47.6" y="-131.8" class="st0" width="108.3" height="109.6"/>
			<g>
				<path class="st1" d="M135-166.5c0,0.1,0.1,0.2,0.2,0.2c12.9,0.1,24.8,3.3,34,11.5c-8-5.6-22.9-7.5-31.5-3.6
					c-0.1,0-0.2,0.2-0.1,0.3s0.1,0.2,0.2,0.2c10.7-0.3,19.3,3,26,9c-6.9,0.4-12.6,4.7-12.6,9.8c0,0.1,0.1,0.2,0.2,0.2s0.2,0,0.3-0.1
					c1.1-2.5,4.8-3.8,8.6-2.9c4.2,1,7,4.2,6.3,7.2c-0.5,2-2.4,3.4-4.9,3.8c-0.1,0-0.2,0.1-0.2,0.3s0.1,0.2,0.2,0.2
					c1.1,0.1,2.2,0.1,3.3,0c6.5-0.6,11.5-4.6,11.9-9.2c4.7,0.6,8.9,3.2,10.4,6.8c0,0.1,0.2,0.2,0.3,0.2s0.2-0.1,0.2-0.2
					c0.4-4.8-1.3-7.8-5-10.9c5.4,2.1,11.4,2.2,17.3-0.5c0.1,0,0.2-0.2,0.1-0.3s-0.1-0.2-0.2-0.2c-4.9-0.2-8.4-1.8-11.7-5.1
					c18.2,5.1,33.1-6.2,27.9-23.1c0-0.1-0.1-0.2-0.3-0.2c-0.1,0-0.2,0.1-0.2,0.2c-0.9,9.7-7.7,16.1-17.9,17.1
					c5.4-2.1,11-7,11.6-15.5c0-0.1-0.1-0.2-0.2-0.3s-0.2,0-0.3,0.1c-2.8,6.2-8.3,9.3-14.2,9.8c6.3-2.6,10.4-8.6,11.6-16.4
					c0-0.1-0.1-0.2-0.2-0.3c-0.1,0-0.2,0-0.3,0.1c-3.9,7.6-12.2,12.8-22.4,8.8c-10.6-4.1-15.3-16.4-16.3-25c0-0.1-0.1-0.2-0.2-0.2
					c-0.1,0-0.2,0.1-0.3,0.2c-3.7,15.7,3.6,31.9,16.6,38.8c-7.1-2-13.4-6.3-17-13.4c-8.3-1-14-3.9-16.9-9.2
					c-0.1-0.1-0.2-0.2-0.3-0.1c-0.1,0-0.2,0.1-0.2,0.3c0.2,2.1,0.9,6.3,4.1,8.3c-7,0-12.5,0.9-17.8,3
					C135.1-166.7,135-166.6,135-166.5z M164.5-219.9c-0.1,0.1-0.2,0.1-0.3,0c-0.1-0.1-0.1-0.2,0-0.3c1.6-2.8,0.1-6.8-3.1-6.8
					c-5.7,0-8.5,10.8-7.6,20.6c2.2-5.8,4-8.1,7.4-10.8c0.1-0.1,0.2-0.1,0.3,0c0.1,0.1,0.1,0.2,0.1,0.3c-4.9,9.1-5.9,16.1-5.9,24.1
					c1.5-6,3.2-9.3,8.1-14.4c0.1-0.1,0.2-0.1,0.3,0c0.1,0.1,0.1,0.2,0.1,0.3c-5.3,11.6-4.9,24.4-0.9,34.3c0,0.1,0,0.2-0.1,0.3
					c-0.1,0.1-0.2,0.1-0.3,0c-5.2-2.6-8.3-4.2-12.8-10.4c1.4-7.4,0.2-11-3.2-17.2c3.9,9.9,1.8,23.9-8.2,29.6c-0.1,0.1-0.2,0-0.3-0.1
					c-0.1-0.1-0.1-0.2,0-0.3c3.8-4,6.5-10.6,4.2-17.9c1.5,10.4-7.6,19.1-17.8,19.1c-9.6,0-16.2-7.5-15.6-14.9
					c0.5-7.4,5.4-11,9.7-12.5c0.1,0,0.2,0,0.3,0.1c0.1,0.1,0.1,0.2,0,0.3c-5.6,5.7-6.4,16.5,3.6,19.8c-5.9-5.1-3.7-16.8,5.7-17.7
					c0.1,0,0.2,0.1,0.3,0.2c0,0.1,0,0.2-0.1,0.3c-2,1.3-3.7,3.8-3.7,6.6c0,4.7,3.4,6.5,5.7,6.5c3.4,0,6.3-3.3,6.3-8.2
					c0-5.8-5.3-10.7-12-11.4c-6.6-0.7-12.8,2.2-15.8,6.5c-0.1,0.1-0.2,0.1-0.3,0.1s-0.2-0.2-0.1-0.3c3-11.7,16.8-16.9,26.9-9.5
					c-6.6-7.5-17-7.6-25.7,0.1c-0.1,0.1-0.2,0.1-0.3,0c-0.1-0.1-0.1-0.2-0.1-0.3c2.7-5.4,9.2-11.8,18.6-10.9
					c8.6,0.9,13.5,9,14.5,15.7c0.6-8.5-1.4-14.5-8.8-20.1c-0.1-0.1-0.1-0.2-0.1-0.3c0.1-0.1,0.2-0.2,0.3-0.1
					c6.8,2,12.2,5.4,15.1,12.5c0-6.2-2.1-12.4-7.5-16.5c-0.1-0.1-0.1-0.2-0.1-0.3c0.1-0.1,0.2-0.2,0.3-0.1c3.4,1,6.2,2.5,8.1,5.2
					c1.3-11.1,6.5-17.7,12.5-17.7c4.1,0,7.2,3,7.2,7.9C169.3-226.1,167.8-222.1,164.5-219.9z M263.7-128.3c-3.2,3.9-9.5,5.4-16.4,4
					c0.5,4.3-0.3,8.8-1.6,11.5c-0.1,0.1-0.2,0.2-0.3,0.1s-0.2-0.1-0.2-0.3c0.4-8.8-4.6-15.8-13.4-18.9c6.9,4.8,8.9,14.2,5.6,19.1
					c-0.1,0.1-0.2,0.1-0.3,0.1c-0.1,0-0.2-0.2-0.1-0.3c0.4-2.1-0.6-4.7-2.7-6.7c-2.9-2.8-6.9-3.4-8.8-1.4c-2,2-1.2,5.9,1.7,8.8
					c1.1,1,2.3,1.8,3.4,2.2c0.1,0,0.2,0.1,0.2,0.3c0,0.1-0.1,0.2-0.2,0.2c-6.4,0.6-10.8-3.2-13.5-7.9c-2.8-4.7-7.6-8.4-13.2-7.7
					c-0.1,0-0.2-0.1-0.3-0.2c0-0.1,0-0.2,0.1-0.3c2.8-1.7,5.9-2.4,9.9-1.1c-5.8-4.9-14.1-7.7-21.8-5.2c-0.1,0-0.2,0-0.3-0.1
					c-0.1-0.1-0.1-0.2,0-0.3c5.9-6.6,17.7-6.7,25.1-1.4c-3-4.3-7.1-7.5-14.3-8.5c-0.1,0-0.2-0.1-0.2-0.2c0-0.1,0.1-0.2,0.2-0.3
					c8.3-3.1,16.6,0,23.4,8.2c-3-6.4-7.9-11.5-14.8-14c-0.1,0-0.2-0.2-0.2-0.3c0-0.1,0.1-0.2,0.2-0.2c3.9-0.1,7.5,0.9,12.3,3.6
					c-3.5-5.7-2.7-15.6,2.4-22.3c0.1-0.1,0.2-0.1,0.3-0.1c0.1,0.1,0.2,0.2,0.1,0.3c-1.2,7.2,1.3,15.3,5.6,19.6
					c-2.1-7.6,0-14.6,5.9-19.6c0.1-0.1,0.2-0.1,0.3,0c0.1,0,0.1,0.1,0.2,0.2c1.2,9.4,11.8,19,20.6,19.8c0.1,0,0.2,0.1,0.2,0.2
					c0,0.1-0.1,0.2-0.2,0.3c-4.3,1-8.7,0.5-12.4-1c2.7,2.9,5.9,5.1,9.6,6.2c0.1,0,0.2,0.1,0.2,0.3c0,0.1-0.1,0.2-0.2,0.2
					c-4.5,0.3-8.9-1-12.7-3.5c4.4,6.6,11,11.5,19.4,13.5c0.1,0,0.2,0.1,0.2,0.3c0,0.1-0.1,0.2-0.2,0.2c-11.9,1.3-21.7-3.3-28.2-11.9
					c1.6,4.9,6.4,9.8,12.9,12.6c5.9,2.6,11.8,2.9,16.4,1.5c0.1,0,0.2,0,0.3,0.1C263.8-128.5,263.8-128.4,263.7-128.3z M210.8-203.9
					c4.8,10.5,4.5,18.7,0.6,29c0,0.1-0.2,0.2-0.3,0.2c-0.1,0-0.2-0.1-0.2-0.3c0.6-12.6-2.8-21.7-10.3-27.8
					c8.2,9.8,4.4,29.6-8.8,29.6c-9.6,0-17.5-8-19.5-17.5c0-0.1,0-0.2,0.2-0.3c0.1,0,0.2,0,0.3,0.1c2.8,4.8,7.4,7.8,12.5,7.8
					c8.1,0,10.5-6.5,10.5-11c0-6.2-4.9-11.3-8.7-11.3c-3.4,0-5,2.8-5,4.9c0,3.9,3,7.2,6.4,8.2c0.1,0,0.2,0.2,0.2,0.3
					c0,0.1-0.1,0.2-0.2,0.2c-4.1,0-7.6-1.9-9.6-5.6c-0.3,2.9-0.3,4.7,0.6,7.7c0,0.1,0,0.2-0.1,0.3c-0.1,0.1-0.2,0-0.3-0.1
					c-7.4-9.4-3.8-25.6,2-32.4c-5.5,4-10.4,12.6-10.3,24.4c0,0.1-0.1,0.2-0.2,0.2c-0.1,0-0.2,0-0.3-0.2c-4.1-10.2-1.9-29.2,9.3-39.8
					c-2.9-0.4-5.9-0.4-9.1,0.7c-0.1,0-0.2,0-0.3-0.1c-0.1-0.1,0-0.2,0.1-0.3c4.1-3.4,9.8-4.5,15.3-4.5c-4.7,5.5-3.1,16.6,4.4,16.6
					c5.4,0,7.8-8.3,3.6-12.8c-0.1-0.1-0.1-0.2,0-0.3c0.1-0.1,0.2-0.1,0.3-0.1c4.8,1.6,9.9,5.8,9.9,11c0,5-4.8,9.4-11.8,9.1
					c8.8,2.5,18.1-0.3,22.9-6.2c0.1-0.1,0.2-0.1,0.3-0.1c0.1,0.1,0.2,0.2,0.1,0.3c-2.8,10.7-12,15.2-23.4,13.7
					c9.3,3.8,23.2,0.5,29.4-7.3c0.1-0.1,0.2-0.1,0.3-0.1c0.1,0.1,0.2,0.2,0.1,0.3C220.1-210.8,216.6-205.8,210.8-203.9z"/>
				<path class="st2" d="M237.2-184.6c0-0.1-0.1-0.2-0.2-0.2c-12.9-0.1-24.8-3.3-34-11.5c8,5.6,22.9,7.5,31.5,3.6
					c0.1,0,0.2-0.2,0.1-0.3c0-0.1-0.1-0.2-0.2-0.2c-10.7,0.3-19.3-3-26-9c6.9-0.4,12.6-4.7,12.6-9.9c0-0.1-0.1-0.2-0.2-0.2
					c-0.1,0-0.2,0-0.3,0.1c-1.1,2.5-4.8,3.8-8.6,2.9c-4.2-1-7-4.2-6.3-7.2c0.5-2,2.4-3.4,4.9-3.8c0.1,0,0.2-0.1,0.2-0.3
					s-0.1-0.2-0.2-0.2c-1.1-0.1-2.2-0.1-3.3,0c-6.5,0.6-11.5,4.6-11.9,9.2c-4.7-0.6-8.9-3.2-10.4-6.8c0-0.1-0.2-0.2-0.3-0.1
					c-0.1,0-0.2,0.1-0.2,0.2c-0.4,4.8,1.3,7.8,5,10.8c-5.4-2.1-11.4-2.2-17.3,0.5c-0.1,0.1-0.2,0.2-0.1,0.3c0,0.1,0.1,0.2,0.2,0.2
					c4.9,0.2,8.4,1.8,11.7,5.1c-18.3-5.1-33.1,6.2-28,23.1c0,0.1,0.1,0.2,0.3,0.2s0.2-0.1,0.2-0.2c0.9-9.7,7.7-16.1,17.9-17.1
					c-5.4,2.1-11,7-11.6,15.5c0,0.1,0.1,0.2,0.2,0.3s0.2,0,0.3-0.1c2.8-6.1,8.3-9.3,14.2-9.8c-6.3,2.6-10.4,8.6-11.6,16.4
					c0,0.1,0.1,0.2,0.2,0.3s0.2,0,0.3-0.1c3.9-7.6,12.2-12.8,22.4-8.8c10.6,4.1,15.3,16.4,16.3,25c0,0.1,0.1,0.2,0.2,0.2
					c0.1,0,0.2-0.1,0.3-0.2c3.7-15.7-3.6-31.9-16.6-38.8c7.1,2,13.4,6.3,17,13.4c8.3,1,14,3.9,16.9,9.2c0.1,0.1,0.2,0.2,0.3,0.1
					c0.1,0,0.2-0.1,0.2-0.3c-0.2-2.1-0.9-6.3-4.1-8.3c7,0,12.5-0.9,17.8-3C237.2-184.4,237.2-184.5,237.2-184.6z M207.7-131.1
					c0.1-0.1,0.2-0.1,0.3,0c0.1,0.1,0.1,0.2,0,0.3c-1.6,2.8-0.1,6.8,3.1,6.8c5.7,0,8.5-10.8,7.6-20.6c-2.2,5.8-4,8.1-7.4,10.8
					c-0.1,0.1-0.2,0.1-0.3,0c-0.1-0.1-0.1-0.2-0.1-0.3c4.9-9.1,5.9-16.1,5.9-24.1c-1.5,6-3.2,9.3-8.1,14.4c-0.1,0.1-0.2,0.1-0.3,0
					c-0.1-0.1-0.1-0.2-0.1-0.3c5.3-11.6,4.9-24.5,0.9-34.3c0-0.1,0-0.2,0.1-0.3c0.1-0.1,0.2-0.1,0.3,0c5.2,2.6,8.3,4.2,12.8,10.4
					c-1.4,7.4-0.2,11.1,3.2,17.2c-3.9-9.9-1.8-23.9,8.2-29.6c0.1-0.1,0.2,0,0.3,0.1c0.1,0.1,0.1,0.2,0,0.3c-3.8,4-6.5,10.6-4.2,17.9
					c-1.5-10.4,7.6-19.1,17.8-19.1c9.6,0,16.1,7.5,15.6,14.9c-0.5,7.4-5.4,11-9.7,12.5c-0.1,0-0.2,0-0.3-0.1s-0.1-0.2,0-0.3
					c5.6-5.7,6.4-16.5-3.6-19.8c5.9,5.1,3.7,16.8-5.7,17.7c-0.1,0-0.2-0.1-0.3-0.2c0-0.1,0-0.2,0.1-0.3c2-1.3,3.7-3.8,3.7-6.6
					c0-4.7-3.4-6.5-5.7-6.5c-3.4,0-6.3,3.3-6.3,8.2c0,5.8,5.3,10.7,12,11.4c6.6,0.7,12.8-2.2,15.7-6.5c0.1-0.1,0.2-0.1,0.3-0.1
					s0.2,0.2,0.1,0.3c-3,11.7-16.8,16.9-26.9,9.5c6.6,7.5,17,7.6,25.7-0.1c0.1-0.1,0.2-0.1,0.3,0c0.1,0.1,0.1,0.2,0.1,0.3
					c-2.7,5.4-9.2,11.8-18.6,10.9c-8.6-0.9-13.5-9-14.5-15.7c-0.6,8.5,1.4,14.5,8.8,20.1c0.1,0.1,0.1,0.2,0.1,0.3
					c-0.1,0.1-0.2,0.2-0.3,0.1c-6.8-2-12.2-5.4-15.1-12.5c0,6.2,2.1,12.4,7.5,16.5c0.1,0.1,0.1,0.2,0.1,0.3
					c-0.1,0.1-0.2,0.2-0.3,0.1c-3.4-1-6.2-2.5-8.1-5.2c-1.3,11.1-6.5,17.7-12.5,17.7c-4.1,0-7.2-3-7.2-7.9
					C202.9-124.9,204.4-128.9,207.7-131.1z M108.5-222.7c3.2-3.9,9.5-5.4,16.4-4c-0.5-4.3,0.3-8.8,1.6-11.5c0.1-0.1,0.2-0.2,0.3-0.1
					c0.1,0,0.2,0.1,0.2,0.3c-0.4,8.8,4.6,15.8,13.5,18.9c-6.9-4.8-8.9-14.2-5.6-19.1c0.1-0.1,0.2-0.1,0.3-0.1c0.1,0,0.2,0.2,0.1,0.3
					c-0.4,2.1,0.6,4.7,2.7,6.7c2.9,2.8,6.9,3.4,8.8,1.4c2-2,1.2-6-1.7-8.8c-1.1-1-2.3-1.8-3.4-2.2c-0.1,0-0.2-0.1-0.2-0.3
					c0-0.1,0.1-0.2,0.2-0.2c6.4-0.6,10.8,3.2,13.5,7.9c2.8,4.7,7.6,8.4,13.2,7.7c0.1,0,0.2,0,0.3,0.2c0,0.1,0,0.2-0.1,0.3
					c-2.8,1.7-5.9,2.4-9.9,1.1c5.8,4.9,14.1,7.7,21.8,5.2c0.1,0,0.2,0,0.3,0.1c0.1,0.1,0.1,0.2,0,0.3c-5.9,6.6-17.7,6.7-25.1,1.4
					c3,4.3,7.1,7.5,14.3,8.5c0.1,0,0.2,0.1,0.2,0.2c0,0.1-0.1,0.2-0.2,0.3c-8.3,3.1-16.6,0-23.4-8.2c3,6.4,7.9,11.5,14.8,14
					c0.1,0,0.2,0.2,0.2,0.3c0,0.1-0.1,0.2-0.2,0.2c-3.9,0.1-7.5-0.9-12.3-3.6c3.5,5.7,2.7,15.6-2.4,22.3c-0.1,0.1-0.2,0.1-0.3,0.1
					c-0.1-0.1-0.2-0.2-0.1-0.3c1.2-7.2-1.3-15.3-5.6-19.6c2.1,7.6,0,14.6-5.9,19.6c-0.1,0.1-0.2,0.1-0.3,0c-0.1,0-0.1-0.1-0.2-0.2
					c-1.2-9.4-11.8-19-20.6-19.8c-0.1,0-0.2-0.1-0.2-0.2c0-0.1,0.1-0.2,0.2-0.3c4.3-1,8.7-0.5,12.4,1c-2.7-2.9-5.9-5.1-9.6-6.2
					c-0.1,0-0.2-0.2-0.2-0.3s0.1-0.2,0.2-0.2c4.5-0.3,8.9,1,12.7,3.5c-4.4-6.6-11-11.5-19.4-13.5c-0.1,0-0.2-0.1-0.2-0.3
					c0-0.1,0.1-0.2,0.2-0.2c11.9-1.3,21.8,3.3,28.2,11.9c-1.6-4.9-6.4-9.8-12.9-12.6c-5.8-2.6-11.8-2.9-16.4-1.5
					c-0.1,0-0.2,0-0.3-0.1C108.4-222.5,108.4-222.7,108.5-222.7z M161.4-147.2c-4.8-10.5-4.5-18.7-0.6-29c0-0.1,0.2-0.2,0.3-0.2
					s0.2,0.1,0.2,0.3c-0.6,12.6,2.8,21.6,10.3,27.8c-8.2-9.9-4.4-29.6,8.8-29.6c9.6,0,17.5,8,19.5,17.5c0,0.1,0,0.2-0.2,0.3
					c-0.1,0-0.2,0-0.3-0.1c-2.8-4.8-7.4-7.9-12.5-7.9c-8.1,0-10.5,6.5-10.5,11c0,6.2,4.9,11.3,8.7,11.3c3.4,0,5-2.8,5-4.9
					c0-3.9-3-7.2-6.4-8.2c-0.1,0-0.2-0.2-0.2-0.3c0-0.1,0.1-0.2,0.2-0.2c4.1,0,7.6,1.8,9.6,5.6c0.3-2.9,0.3-4.7-0.6-7.7
					c0-0.1,0-0.2,0.1-0.3c0.1-0.1,0.2,0,0.3,0.1c7.4,9.4,3.8,25.6-2,32.4c5.5-4,10.4-12.6,10.3-24.4c0-0.1,0.1-0.2,0.2-0.2
					c0.1,0,0.2,0,0.3,0.2c4.1,10.2,1.9,29.2-9.3,39.8c2.9,0.4,5.9,0.3,9.1-0.7c0.1,0,0.2,0,0.3,0.1s0,0.2-0.1,0.3
					c-4.1,3.5-9.8,4.5-15.3,4.5c4.7-5.5,3.1-16.6-4.4-16.6c-5.4,0-7.8,8.3-3.6,12.8c0.1,0.1,0.1,0.2,0,0.3c-0.1,0.1-0.2,0.1-0.3,0.1
					c-4.8-1.7-9.9-5.8-9.9-11c0-5,4.8-9.4,11.8-9.1c-8.8-2.5-18.1,0.3-22.9,6.2c-0.1,0.1-0.2,0.1-0.3,0.1c-0.1-0.1-0.2-0.2-0.1-0.3
					c2.8-10.7,12-15.2,23.4-13.7c-9.3-3.8-23.2-0.5-29.4,7.3c-0.1,0.1-0.2,0.1-0.3,0.1s-0.2-0.2-0.1-0.3
					C152.2-140.3,155.7-145.2,161.4-147.2z"/>
			</g>
			<g>
				<path class="st1" d="M26.7-166.5c0,0.1,0.1,0.2,0.2,0.2c12.9,0.1,24.8,3.3,34,11.5c-8-5.6-22.9-7.5-31.5-3.6
					c-0.1,0-0.2,0.2-0.1,0.3s0.1,0.2,0.2,0.2c10.7-0.3,19.3,3,26,9c-6.9,0.4-12.6,4.7-12.6,9.8c0,0.1,0.1,0.2,0.2,0.2s0.2,0,0.3-0.1
					c1.1-2.5,4.8-3.8,8.6-2.9c4.2,1,7,4.2,6.3,7.2c-0.5,2-2.4,3.4-5,3.8c-0.1,0-0.2,0.1-0.2,0.3s0.1,0.2,0.2,0.2
					c1.1,0.1,2.2,0.1,3.3,0c6.5-0.6,11.5-4.6,12-9.2c4.7,0.6,8.9,3.2,10.4,6.8c0,0.1,0.2,0.2,0.3,0.2c0.1,0,0.2-0.1,0.2-0.2
					c0.4-4.8-1.3-7.8-5-10.9c5.4,2.1,11.4,2.2,17.3-0.5c0.1,0,0.2-0.2,0.1-0.3c0-0.1-0.1-0.2-0.2-0.2c-4.9-0.2-8.4-1.8-11.7-5.1
					c18.2,5.1,33.1-6.2,27.9-23.1c0-0.1-0.2-0.2-0.3-0.2c-0.1,0-0.2,0.1-0.2,0.2c-0.9,9.7-7.7,16.1-17.9,17.1
					c5.4-2.1,11-7,11.6-15.5c0-0.1-0.1-0.2-0.2-0.3s-0.2,0-0.3,0.1c-2.8,6.2-8.3,9.3-14.2,9.8c6.3-2.6,10.4-8.6,11.6-16.4
					c0-0.1-0.1-0.2-0.2-0.3c-0.1,0-0.2,0-0.3,0.1c-3.9,7.6-12.2,12.8-22.5,8.8c-10.6-4.1-15.3-16.4-16.3-25c0-0.1-0.1-0.2-0.2-0.2
					c-0.1,0-0.2,0.1-0.3,0.2c-3.7,15.7,3.6,31.9,16.6,38.8c-7.1-2-13.4-6.3-17-13.4c-8.3-1-14-3.9-16.9-9.2
					c-0.1-0.1-0.2-0.2-0.3-0.1c-0.1,0-0.2,0.1-0.2,0.3c0.2,2.1,0.9,6.3,4.1,8.3c-7,0-12.5,0.9-17.8,3
					C26.7-166.7,26.7-166.6,26.7-166.5z M56.2-219.9c-0.1,0.1-0.2,0.1-0.3,0s-0.1-0.2,0-0.3c1.6-2.8,0.1-6.8-3-6.8
					c-5.7,0-8.5,10.8-7.6,20.6c2.2-5.8,4-8.1,7.3-10.8c0.1-0.1,0.2-0.1,0.3,0s0.1,0.2,0.1,0.3c-4.9,9.1-5.9,16.1-5.9,24.1
					c1.5-6,3.2-9.3,8.1-14.4c0.1-0.1,0.2-0.1,0.3,0c0.1,0.1,0.1,0.2,0.1,0.3c-5.3,11.6-4.9,24.4-1,34.3c0,0.1,0,0.2-0.1,0.3
					c-0.1,0.1-0.2,0.1-0.3,0c-5.2-2.6-8.3-4.2-12.8-10.4c1.4-7.4,0.2-11-3.2-17.2c3.9,9.9,1.8,23.9-8.2,29.6c-0.1,0.1-0.2,0-0.3-0.1
					c-0.1-0.1-0.1-0.2,0-0.3c3.8-4,6.5-10.6,4.2-17.9c1.5,10.4-7.6,19.1-17.8,19.1c-9.6,0-16.1-7.5-15.6-14.9
					c0.5-7.4,5.4-11,9.7-12.5c0.1,0,0.2,0,0.3,0.1c0.1,0.1,0.1,0.2,0,0.3c-5.6,5.7-6.4,16.5,3.6,19.8c-5.9-5.1-3.7-16.8,5.7-17.7
					c0.1,0,0.2,0.1,0.3,0.2c0,0.1,0,0.2-0.1,0.3c-2,1.3-3.7,3.8-3.7,6.6c0,4.7,3.4,6.5,5.7,6.5c3.4,0,6.3-3.3,6.3-8.2
					c0-5.8-5.3-10.7-12-11.4c-6.6-0.7-12.8,2.2-15.8,6.5c-0.1,0.1-0.2,0.1-0.3,0.1S0-194.3,0-194.4c3-11.7,16.8-16.9,26.9-9.5
					c-6.6-7.5-17-7.6-25.7,0.1c-0.1,0.1-0.2,0.1-0.3,0c-0.1-0.1-0.1-0.2-0.1-0.3c2.7-5.4,9.2-11.8,18.6-10.9
					c8.6,0.9,13.5,9,14.5,15.7c0.6-8.5-1.4-14.5-8.8-20.1c-0.1-0.1-0.1-0.2-0.1-0.3c0-0.1,0.2-0.2,0.3-0.1c6.8,2,12.2,5.4,15,12.5
					c0-6.2-2.1-12.4-7.5-16.5c-0.1-0.1-0.1-0.2-0.1-0.3c0-0.1,0.2-0.2,0.3-0.1c3.5,1,6.2,2.5,8.1,5.2c1.3-11.1,6.5-17.7,12.5-17.7
					c4.1,0,7.2,3,7.2,7.9C61-226.1,59.5-222.1,56.2-219.9z M155.4-128.3c-3.2,3.9-9.5,5.4-16.4,4c0.5,4.3-0.3,8.8-1.6,11.5
					c-0.1,0.1-0.2,0.2-0.3,0.1s-0.2-0.1-0.2-0.3c0.4-8.8-4.6-15.8-13.4-18.9c6.9,4.8,8.9,14.2,5.6,19.1c-0.1,0.1-0.2,0.1-0.3,0.1
					c-0.1,0-0.2-0.2-0.1-0.3c0.4-2.1-0.6-4.7-2.7-6.7c-2.9-2.8-6.8-3.4-8.8-1.4c-2,2-1.2,5.9,1.7,8.8c1.1,1,2.3,1.8,3.4,2.2
					c0.1,0,0.2,0.1,0.2,0.3c0,0.1-0.1,0.2-0.2,0.2c-6.4,0.6-10.8-3.2-13.5-7.9c-2.8-4.7-7.6-8.4-13.2-7.7c-0.1,0-0.2-0.1-0.3-0.2
					c0-0.1,0-0.2,0.1-0.3c2.8-1.7,5.9-2.4,9.9-1.1c-5.8-4.9-14.1-7.7-21.8-5.2c-0.1,0-0.2,0-0.3-0.1c-0.1-0.1-0.1-0.2,0-0.3
					c5.9-6.6,17.7-6.7,25.1-1.4c-3-4.3-7.1-7.5-14.3-8.5c-0.1,0-0.2-0.1-0.2-0.2c0-0.1,0.1-0.2,0.2-0.3c8.3-3.1,16.6,0,23.4,8.2
					c-3-6.4-7.9-11.5-14.8-14c-0.1,0-0.2-0.2-0.2-0.3c0-0.1,0.1-0.2,0.2-0.2c3.9-0.1,7.5,0.9,12.3,3.6c-3.5-5.7-2.7-15.6,2.4-22.3
					c0.1-0.1,0.2-0.1,0.3-0.1c0.1,0.1,0.2,0.2,0.2,0.3c-1.2,7.2,1.3,15.3,5.6,19.6c-2.2-7.6,0-14.6,5.9-19.6c0.1-0.1,0.2-0.1,0.3,0
					c0.1,0,0.1,0.1,0.2,0.2c1.2,9.4,11.8,19,20.6,19.8c0.1,0,0.2,0.1,0.2,0.2c0,0.1-0.1,0.2-0.2,0.3c-4.3,1-8.7,0.5-12.4-1
					c2.7,2.9,5.9,5.1,9.6,6.2c0.1,0,0.2,0.1,0.2,0.3c0,0.1-0.1,0.2-0.2,0.2c-4.5,0.3-8.9-1-12.7-3.5c4.4,6.6,11,11.5,19.4,13.5
					c0.1,0,0.2,0.1,0.2,0.3c0,0.1-0.1,0.2-0.2,0.2c-11.9,1.3-21.8-3.3-28.2-11.9c1.7,4.9,6.4,9.8,12.9,12.6
					c5.9,2.6,11.9,2.9,16.4,1.5c0.1,0,0.2,0,0.3,0.1C155.5-128.5,155.5-128.4,155.4-128.3z M102.5-203.9c4.8,10.5,4.5,18.7,0.6,29
					c0,0.1-0.2,0.2-0.3,0.2c-0.1,0-0.2-0.1-0.2-0.3c0.6-12.6-2.8-21.7-10.3-27.8c8.2,9.8,4.3,29.6-8.8,29.6c-9.6,0-17.5-8-19.5-17.5
					c0-0.1,0-0.2,0.2-0.3c0.1,0,0.2,0,0.3,0.1c2.8,4.8,7.4,7.8,12.5,7.8c8.1,0,10.5-6.5,10.5-11c0-6.2-4.9-11.3-8.7-11.3
					c-3.4,0-5,2.8-5,4.9c0,3.9,3,7.2,6.4,8.2c0.1,0,0.2,0.2,0.2,0.3c0,0.1-0.1,0.2-0.2,0.2c-4.1,0-7.6-1.9-9.6-5.6
					c-0.3,2.9-0.3,4.7,0.6,7.7c0,0.1,0,0.2-0.1,0.3c-0.1,0.1-0.2,0-0.3-0.1c-7.4-9.4-3.8-25.6,2-32.4c-5.5,4-10.4,12.6-10.3,24.4
					c0,0.1-0.1,0.2-0.2,0.2c-0.1,0-0.2,0-0.3-0.2c-4.1-10.2-1.9-29.2,9.3-39.8c-2.9-0.4-5.9-0.4-9.1,0.7c-0.1,0-0.2,0-0.3-0.1
					c-0.1-0.1,0-0.2,0.1-0.3c4.1-3.4,9.8-4.5,15.2-4.5c-4.7,5.5-3.1,16.6,4.4,16.6c5.3,0,7.8-8.3,3.7-12.8c-0.1-0.1-0.1-0.2,0-0.3
					c0.1-0.1,0.2-0.1,0.3-0.1c4.8,1.6,9.9,5.8,9.9,11c0,5-4.8,9.4-11.8,9.1c8.8,2.5,18-0.3,22.9-6.2c0.1-0.1,0.2-0.1,0.3-0.1
					c0.1,0.1,0.2,0.2,0.1,0.3c-2.8,10.7-12,15.2-23.4,13.7c9.3,3.8,23.2,0.5,29.4-7.3c0.1-0.1,0.2-0.1,0.3-0.1
					c0.1,0.1,0.2,0.2,0.1,0.3C111.8-210.8,108.3-205.8,102.5-203.9z"/>
				<path class="st2" d="M128.9-184.6c0-0.1-0.1-0.2-0.2-0.2c-12.9-0.1-24.8-3.3-34-11.5c8,5.6,22.9,7.5,31.5,3.6
					c0.1,0,0.2-0.2,0.1-0.3c0-0.1-0.1-0.2-0.2-0.2c-10.7,0.3-19.3-3-26-9c6.9-0.4,12.6-4.7,12.6-9.9c0-0.1-0.1-0.2-0.2-0.2
					c-0.1,0-0.2,0-0.3,0.1c-1.1,2.5-4.8,3.8-8.6,2.9c-4.2-1-7-4.2-6.3-7.2c0.5-2,2.4-3.4,4.9-3.8c0.1,0,0.2-0.1,0.2-0.3
					s-0.1-0.2-0.2-0.2c-1.1-0.1-2.2-0.1-3.3,0c-6.5,0.6-11.5,4.6-11.9,9.2c-4.7-0.6-8.9-3.2-10.4-6.8c0-0.1-0.2-0.2-0.3-0.1
					c-0.1,0-0.2,0.1-0.2,0.2c-0.4,4.8,1.3,7.8,5,10.8c-5.4-2.1-11.4-2.2-17.3,0.5c-0.1,0.1-0.2,0.2-0.1,0.3c0,0.1,0.1,0.2,0.2,0.2
					c4.9,0.2,8.4,1.8,11.7,5.1c-18.3-5.1-33.1,6.2-28,23.1c0,0.1,0.2,0.2,0.3,0.2s0.2-0.1,0.2-0.2c0.9-9.7,7.7-16.1,17.9-17.1
					c-5.4,2.1-11,7-11.6,15.5c0,0.1,0.1,0.2,0.2,0.3s0.2,0,0.3-0.1c2.8-6.1,8.3-9.3,14.2-9.8c-6.3,2.6-10.4,8.6-11.6,16.4
					c0,0.1,0,0.2,0.2,0.3s0.2,0,0.3-0.1c3.9-7.6,12.2-12.8,22.5-8.8c10.6,4.1,15.3,16.4,16.3,25c0,0.1,0.1,0.2,0.2,0.2
					c0.1,0,0.2-0.1,0.3-0.2c3.7-15.6-3.6-31.9-16.6-38.8c7.1,2,13.4,6.3,17,13.4c8.3,1,14,3.9,16.9,9.2c0.1,0.1,0.2,0.2,0.3,0.1
					c0.1,0,0.2-0.1,0.2-0.3c-0.2-2.1-0.9-6.3-4.1-8.3c7,0,12.5-0.9,17.8-3C128.8-184.4,128.9-184.5,128.9-184.6z M99.4-131.1
					c0.1-0.1,0.2-0.1,0.3,0s0.1,0.2,0,0.3c-1.6,2.8-0.1,6.8,3.1,6.8c5.7,0,8.5-10.8,7.6-20.6c-2.2,5.8-4,8.1-7.3,10.8
					c-0.1,0.1-0.2,0.1-0.3,0c-0.1-0.1-0.1-0.2-0.1-0.3c4.9-9.1,5.9-16.1,5.9-24.1c-1.5,6-3.2,9.3-8.1,14.4c-0.1,0.1-0.2,0.1-0.3,0
					c-0.1-0.1-0.1-0.2-0.1-0.3c5.3-11.6,4.9-24.5,0.9-34.3c0-0.1,0-0.2,0.1-0.3c0.1-0.1,0.2-0.1,0.3,0c5.2,2.6,8.3,4.2,12.8,10.4
					c-1.4,7.4-0.2,11.1,3.2,17.2c-3.9-9.9-1.8-23.9,8.2-29.6c0.1-0.1,0.2,0,0.3,0.1c0.1,0.1,0.1,0.2,0,0.3c-3.8,4-6.5,10.6-4.2,17.9
					c-1.5-10.4,7.6-19.1,17.8-19.1c9.6,0,16.1,7.5,15.6,14.9c-0.5,7.4-5.4,11-9.7,12.5c-0.1,0-0.2,0-0.3-0.1s-0.1-0.2,0-0.3
					c5.6-5.7,6.4-16.5-3.6-19.8c5.9,5.1,3.7,16.8-5.7,17.7c-0.1,0-0.2-0.1-0.3-0.2c0-0.1,0-0.2,0.1-0.3c2-1.3,3.7-3.8,3.7-6.6
					c0-4.7-3.4-6.5-5.7-6.5c-3.4,0-6.3,3.3-6.3,8.2c0,5.8,5.3,10.7,12,11.4c6.6,0.7,12.8-2.2,15.8-6.5c0.1-0.1,0.2-0.1,0.3-0.1
					s0.2,0.2,0.1,0.3c-3,11.7-16.8,16.9-26.9,9.5c6.6,7.5,17,7.6,25.7-0.1c0.1-0.1,0.2-0.1,0.3,0c0.1,0.1,0.1,0.2,0.1,0.3
					c-2.7,5.4-9.2,11.8-18.6,10.9c-8.6-0.9-13.5-9-14.5-15.7c-0.6,8.5,1.4,14.5,8.8,20.1c0.1,0.1,0.1,0.2,0.1,0.3
					c-0.1,0.1-0.2,0.2-0.3,0.1c-6.8-2-12.2-5.4-15.1-12.5c0,6.2,2.1,12.4,7.5,16.5c0.1,0.1,0.1,0.2,0.1,0.3
					c-0.1,0.1-0.2,0.2-0.3,0.1c-3.4-1-6.2-2.5-8.1-5.2c-1.3,11.1-6.5,17.7-12.5,17.7c-4.1,0-7.2-3-7.2-7.9
					C94.6-124.9,96.1-128.9,99.4-131.1z M0.2-222.7c3.2-3.9,9.5-5.4,16.4-4c-0.5-4.3,0.3-8.8,1.6-11.5c0-0.1,0.2-0.2,0.3-0.1
					c0.1,0,0.2,0.1,0.2,0.3c-0.4,8.8,4.6,15.8,13.5,18.9c-6.9-4.8-8.9-14.2-5.6-19.1c0.1-0.1,0.2-0.1,0.3-0.1c0.1,0,0.2,0.2,0.2,0.3
					c-0.4,2.1,0.6,4.7,2.7,6.7c2.9,2.8,6.8,3.4,8.8,1.4c2-2,1.2-6-1.7-8.8c-1.1-1-2.3-1.8-3.5-2.2c-0.1,0-0.2-0.1-0.2-0.3
					c0-0.1,0.1-0.2,0.2-0.2c6.4-0.6,10.8,3.2,13.5,7.9c2.8,4.7,7.6,8.4,13.2,7.7c0.1,0,0.2,0,0.3,0.2c0,0.1,0,0.2-0.1,0.3
					c-2.8,1.7-5.9,2.4-9.9,1.1c5.8,4.9,14,7.7,21.8,5.2c0.1,0,0.2,0,0.3,0.1c0.1,0.1,0.1,0.2,0,0.3c-5.9,6.6-17.7,6.7-25.1,1.4
					c3,4.3,7.1,7.5,14.3,8.5c0.1,0,0.2,0.1,0.2,0.2c0,0.1,0,0.2-0.2,0.3c-8.3,3.1-16.6,0-23.5-8.2c3,6.4,7.9,11.5,14.8,14
					c0.1,0,0.2,0.2,0.2,0.3S53.1-202,53-202c-3.9,0.1-7.5-0.9-12.3-3.6c3.5,5.7,2.7,15.6-2.4,22.3c-0.1,0.1-0.2,0.1-0.3,0.1
					c-0.1-0.1-0.2-0.2-0.2-0.3c1.2-7.2-1.3-15.3-5.6-19.6c2.2,7.6,0,14.6-5.9,19.6c-0.1,0.1-0.2,0.1-0.3,0c-0.1,0-0.1-0.1-0.2-0.2
					c-1.2-9.4-11.8-19-20.6-19.8c-0.1,0-0.2-0.1-0.2-0.2c0-0.1,0.1-0.2,0.2-0.3c4.3-1,8.7-0.5,12.4,1c-2.7-2.9-5.9-5.1-9.6-6.2
					c-0.1,0-0.2-0.2-0.2-0.3c0-0.1,0.1-0.2,0.2-0.2c4.5-0.3,8.9,1,12.7,3.5c-4.4-6.6-11-11.5-19.4-13.5c-0.1,0-0.2-0.1-0.2-0.3
					c0-0.1,0.1-0.2,0.2-0.2c11.9-1.3,21.8,3.3,28.2,11.9c-1.6-4.9-6.4-9.8-13-12.6c-5.9-2.6-11.9-2.9-16.4-1.5c-0.1,0-0.2,0-0.3-0.1
					C0.1-222.5,0.1-222.7,0.2-222.7z M53.1-147.2c-4.8-10.5-4.5-18.7-0.6-29c0-0.1,0.2-0.2,0.3-0.2c0.1,0,0.2,0.1,0.2,0.3
					c-0.6,12.6,2.8,21.6,10.3,27.8c-8.2-9.9-4.3-29.6,8.8-29.6c9.6,0,17.5,8,19.5,17.5c0,0.1,0,0.2-0.2,0.3c-0.1,0-0.2,0-0.3-0.1
					c-2.8-4.8-7.4-7.9-12.5-7.9c-8.1,0-10.5,6.5-10.5,11c0,6.2,4.9,11.3,8.7,11.3c3.4,0,5-2.8,5-4.9c0-3.9-3-7.2-6.4-8.2
					c-0.1,0-0.2-0.2-0.2-0.3s0.1-0.2,0.2-0.2c4.1,0,7.6,1.8,9.6,5.6c0.3-2.9,0.3-4.7-0.6-7.7c0-0.1,0-0.2,0.1-0.3
					c0.1-0.1,0.2,0,0.3,0.1c7.4,9.4,3.8,25.6-2,32.4c5.5-4,10.4-12.6,10.3-24.4c0-0.1,0.1-0.2,0.2-0.2c0.1,0,0.2,0,0.3,0.2
					c4.1,10.2,1.9,29.2-9.3,39.8c2.9,0.4,5.9,0.3,9.1-0.7c0.1,0,0.2,0,0.3,0.1c0.1,0.1,0,0.2-0.1,0.3c-4.1,3.5-9.8,4.5-15.3,4.5
					c4.7-5.5,3.1-16.6-4.3-16.6c-5.3,0-7.8,8.3-3.7,12.8c0.1,0.1,0.1,0.2,0,0.3c-0.1,0.1-0.2,0.1-0.3,0.1c-4.8-1.7-10-5.8-10-11
					c0-5,4.8-9.4,11.8-9.1c-8.8-2.5-18,0.3-22.9,6.2c-0.1,0.1-0.2,0.1-0.3,0.1c-0.1-0.1-0.2-0.2-0.1-0.3c2.8-10.7,12-15.2,23.4-13.7
					c-9.3-3.8-23.2-0.5-29.4,7.3c-0.1,0.1-0.2,0.1-0.3,0.1s-0.2-0.2-0.1-0.3C43.8-140.3,47.3-145.2,53.1-147.2z"/>
			</g>
			<g>
				<path class="st1" d="M135-56.8c0,0.1,0.1,0.2,0.2,0.2c12.9,0.1,24.8,3.3,34,11.5c-8-5.6-22.9-7.5-31.5-3.6
					c-0.1,0.1-0.2,0.2-0.1,0.3s0.1,0.2,0.2,0.2c10.7-0.3,19.3,3,26,9c-6.9,0.4-12.6,4.7-12.6,9.8c0,0.1,0.1,0.2,0.2,0.2
					s0.2,0,0.3-0.1c1.1-2.5,4.8-3.8,8.6-2.9c4.2,1,7,4.2,6.3,7.2c-0.5,2-2.4,3.4-4.9,3.8c-0.1,0-0.2,0.1-0.2,0.3
					c0,0.1,0.1,0.2,0.2,0.2c1.1,0.1,2.2,0.1,3.3,0c6.5-0.6,11.5-4.6,11.9-9.2c4.7,0.6,8.9,3.2,10.4,6.8c0,0.1,0.2,0.2,0.3,0.1
					s0.2-0.1,0.2-0.2c0.4-4.8-1.3-7.8-5-10.9c5.4,2.1,11.4,2.2,17.3-0.5c0.1-0.1,0.2-0.2,0.1-0.3s-0.1-0.2-0.2-0.2
					c-4.9-0.2-8.4-1.8-11.7-5.1c18.2,5.1,33.1-6.2,27.9-23.1c0-0.1-0.1-0.2-0.3-0.2c-0.1,0-0.2,0.1-0.2,0.2
					c-0.9,9.7-7.7,16.1-17.9,17.1c5.4-2.1,11-7,11.6-15.5c0-0.1-0.1-0.2-0.2-0.3s-0.2,0-0.3,0.1c-2.8,6.1-8.3,9.3-14.2,9.8
					c6.3-2.6,10.4-8.6,11.6-16.4c0-0.1-0.1-0.2-0.2-0.3s-0.2,0-0.3,0.1c-3.9,7.6-12.2,12.8-22.4,8.8c-10.6-4.1-15.3-16.4-16.3-25
					c0-0.1-0.1-0.2-0.2-0.2c-0.1,0-0.2,0.1-0.3,0.2c-3.7,15.7,3.6,31.9,16.6,38.8c-7.1-2-13.4-6.3-17-13.4c-8.3-1-14-3.9-16.9-9.2
					c-0.1-0.1-0.2-0.2-0.3-0.1c-0.1,0-0.2,0.1-0.2,0.3c0.2,2.1,0.9,6.3,4.1,8.3c-7,0-12.5,0.9-17.8,3C135.1-57.1,135-56.9,135-56.8z
					 M164.5-110.3c-0.1,0.1-0.2,0.1-0.3,0c-0.1-0.1-0.1-0.2,0-0.3c1.6-2.8,0.1-6.8-3.1-6.8c-5.7,0-8.5,10.8-7.6,20.6
					c2.2-5.8,4-8.1,7.4-10.8c0.1-0.1,0.2-0.1,0.3,0c0.1,0.1,0.1,0.2,0.1,0.3c-4.9,9.1-5.9,16.1-5.9,24.1c1.5-6,3.2-9.3,8.1-14.4
					c0.1-0.1,0.2-0.1,0.3,0s0.1,0.2,0.1,0.3c-5.3,11.6-4.9,24.4-0.9,34.3c0,0.1,0,0.2-0.1,0.3c-0.1,0.1-0.2,0.1-0.3,0
					c-5.2-2.6-8.3-4.2-12.8-10.4c1.4-7.4,0.2-11.1-3.2-17.2c3.9,9.9,1.8,23.9-8.2,29.6c-0.1,0.1-0.2,0-0.3-0.1
					c-0.1-0.1-0.1-0.2,0-0.3c3.8-4,6.5-10.6,4.2-17.9c1.5,10.4-7.6,19.1-17.8,19.1c-9.6,0-16.2-7.5-15.6-14.9
					c0.5-7.4,5.4-11,9.7-12.5c0.1,0,0.2,0,0.3,0.1c0.1,0.1,0.1,0.2,0,0.3c-5.6,5.7-6.4,16.5,3.6,19.8c-5.9-5.1-3.7-16.8,5.7-17.7
					c0.1,0,0.2,0.1,0.3,0.2c0,0.1,0,0.2-0.1,0.3c-2,1.3-3.7,3.8-3.7,6.6c0,4.7,3.4,6.5,5.7,6.5c3.4,0,6.3-3.3,6.3-8.2
					c0-5.8-5.3-10.7-12-11.4c-6.6-0.7-12.8,2.1-15.8,6.5c-0.1,0.1-0.2,0.1-0.3,0.1s-0.2-0.2-0.1-0.3c3-11.7,16.8-16.9,26.9-9.5
					c-6.6-7.5-17-7.6-25.7,0.1c-0.1,0.1-0.2,0.1-0.3,0c-0.1-0.1-0.1-0.2-0.1-0.3c2.7-5.4,9.2-11.8,18.6-10.9
					c8.6,0.9,13.5,9,14.5,15.7c0.6-8.5-1.4-14.5-8.8-20.1c-0.1-0.1-0.1-0.2-0.1-0.3c0.1-0.1,0.2-0.2,0.3-0.1
					c6.8,2,12.2,5.4,15.1,12.5c0-6.2-2.1-12.4-7.5-16.5c-0.1-0.1-0.1-0.2-0.1-0.3s0.2-0.2,0.3-0.1c3.4,1,6.2,2.5,8.1,5.2
					c1.3-11.1,6.5-17.7,12.5-17.7c4.1,0,7.2,3,7.2,7.9C169.3-116.5,167.8-112.5,164.5-110.3z M263.7-18.7c-3.2,3.9-9.5,5.4-16.4,4
					c0.5,4.3-0.3,8.8-1.6,11.5c-0.1,0.1-0.2,0.2-0.3,0.1s-0.2-0.1-0.2-0.3c0.4-8.8-4.6-15.8-13.4-18.9c6.9,4.8,8.9,14.2,5.6,19.1
					c-0.1,0.1-0.2,0.1-0.3,0.1c-0.1,0-0.2-0.2-0.1-0.3c0.4-2.1-0.6-4.7-2.7-6.7c-2.9-2.8-6.9-3.4-8.8-1.4c-2,2-1.2,5.9,1.7,8.8
					c1.1,1,2.3,1.8,3.4,2.2c0.1,0,0.2,0.1,0.2,0.3c0,0.1-0.1,0.2-0.2,0.2C224.1,0.5,219.8-3.3,217-8c-2.8-4.7-7.6-8.4-13.2-7.7
					c-0.1,0-0.2-0.1-0.3-0.2c0-0.1,0-0.2,0.1-0.3c2.8-1.7,5.9-2.4,9.9-1.1c-5.8-4.9-14.1-7.7-21.8-5.2c-0.1,0-0.2,0-0.3-0.1
					c-0.1-0.1-0.1-0.2,0-0.3c5.9-6.6,17.7-6.7,25.1-1.4c-3-4.3-7.1-7.5-14.3-8.5c-0.1,0-0.2-0.1-0.2-0.2c0-0.1,0.1-0.2,0.2-0.3
					c8.3-3.1,16.6,0,23.4,8.2c-3-6.4-7.9-11.5-14.8-14c-0.1,0-0.2-0.2-0.2-0.3c0-0.1,0.1-0.2,0.2-0.2c3.9-0.1,7.5,0.9,12.3,3.6
					c-3.5-5.7-2.7-15.6,2.4-22.3c0.1-0.1,0.2-0.1,0.3-0.1c0.1,0.1,0.2,0.2,0.1,0.3c-1.2,7.2,1.3,15.3,5.6,19.6
					c-2.1-7.6,0-14.6,5.9-19.6c0.1-0.1,0.2-0.1,0.3,0c0.1,0,0.1,0.1,0.2,0.2c1.2,9.4,11.8,19,20.6,19.8c0.1,0,0.2,0.1,0.2,0.2
					c0,0.1-0.1,0.2-0.2,0.3c-4.3,1-8.7,0.5-12.4-1c2.7,2.9,5.9,5.1,9.6,6.2c0.1,0,0.2,0.1,0.2,0.3c0,0.1-0.1,0.2-0.2,0.2
					c-4.5,0.3-8.9-1-12.7-3.5c4.4,6.6,11,11.5,19.4,13.5c0.1,0,0.2,0.1,0.2,0.3c0,0.1-0.1,0.2-0.2,0.2c-11.9,1.3-21.7-3.3-28.2-11.9
					c1.6,4.9,6.4,9.8,12.9,12.6c5.9,2.5,11.8,2.9,16.4,1.5c0.1,0,0.2,0,0.3,0.1C263.8-18.9,263.8-18.8,263.7-18.7z M210.8-94.2
					c4.8,10.5,4.5,18.7,0.6,29.1c0,0.1-0.2,0.2-0.3,0.2c-0.1,0-0.2-0.1-0.2-0.3c0.6-12.6-2.8-21.6-10.3-27.8
					c8.2,9.9,4.4,29.6-8.8,29.6c-9.6,0-17.5-8-19.5-17.5c0-0.1,0-0.2,0.2-0.3c0.1,0,0.2,0,0.3,0.1c2.8,4.8,7.4,7.9,12.5,7.9
					c8.1,0,10.5-6.5,10.5-11c0-6.2-4.9-11.3-8.7-11.3c-3.4,0-5,2.8-5,4.9c0,3.9,3,7.2,6.4,8.2c0.1,0,0.2,0.1,0.2,0.3
					c0,0.1-0.1,0.2-0.2,0.2c-4.1,0-7.6-1.9-9.6-5.6c-0.3,2.9-0.3,4.7,0.6,7.7c0,0.1,0,0.2-0.1,0.3c-0.1,0.1-0.2,0-0.3-0.1
					c-7.4-9.4-3.8-25.6,2-32.4c-5.5,4-10.4,12.6-10.3,24.4c0,0.1-0.1,0.2-0.2,0.2c-0.1,0-0.2,0-0.3-0.1c-4.1-10.2-1.9-29.2,9.3-39.8
					c-2.9-0.4-5.9-0.3-9.1,0.7c-0.1,0-0.2,0-0.3-0.1s0-0.2,0.1-0.3c4.1-3.5,9.8-4.5,15.3-4.5c-4.7,5.5-3.1,16.6,4.4,16.6
					c5.4,0,7.8-8.3,3.6-12.8c-0.1-0.1-0.1-0.2,0-0.3s0.2-0.1,0.3-0.1c4.8,1.6,9.9,5.8,9.9,11c0,5-4.8,9.4-11.8,9.1
					c8.8,2.5,18.1-0.3,22.9-6.2c0.1-0.1,0.2-0.1,0.3-0.1c0.1,0.1,0.2,0.2,0.1,0.3c-2.8,10.7-12,15.2-23.4,13.7
					c9.3,3.8,23.2,0.5,29.4-7.3c0.1-0.1,0.2-0.1,0.3-0.1c0.1,0.1,0.2,0.2,0.1,0.3C220.1-101.1,216.6-96.2,210.8-94.2z"/>
				<path class="st2" d="M237.2-75c0-0.1-0.1-0.2-0.2-0.2c-12.9-0.1-24.8-3.3-34-11.5c8,5.6,22.9,7.5,31.5,3.6
					c0.1-0.1,0.2-0.2,0.1-0.3s-0.1-0.2-0.2-0.2c-10.7,0.3-19.3-3-26-9c6.9-0.4,12.6-4.7,12.6-9.9c0-0.1-0.1-0.2-0.2-0.2
					c-0.1,0-0.2,0-0.3,0.1c-1.1,2.5-4.8,3.8-8.6,2.9c-4.2-1-7-4.2-6.3-7.2c0.5-2,2.4-3.4,4.9-3.8c0.1,0,0.2-0.1,0.2-0.3
					c0-0.1-0.1-0.2-0.2-0.2c-1.1-0.1-2.2-0.1-3.3,0c-6.5,0.6-11.5,4.6-11.9,9.2c-4.7-0.6-8.9-3.2-10.4-6.8c0-0.1-0.2-0.2-0.3-0.1
					s-0.2,0.1-0.2,0.2c-0.4,4.8,1.3,7.8,5,10.9c-5.4-2.1-11.4-2.2-17.3,0.5c-0.1,0.1-0.2,0.2-0.1,0.3c0,0.1,0.1,0.2,0.2,0.2
					c4.9,0.2,8.4,1.8,11.7,5.1c-18.3-5.1-33.1,6.2-28,23.1c0,0.1,0.1,0.2,0.3,0.2s0.2-0.1,0.2-0.2c0.9-9.7,7.7-16.1,17.9-17.1
					c-5.4,2.1-11,7-11.6,15.5c0,0.1,0.1,0.2,0.2,0.3s0.2,0,0.3-0.1c2.8-6.1,8.3-9.3,14.2-9.8c-6.3,2.6-10.4,8.6-11.6,16.4
					c0,0.1,0.1,0.2,0.2,0.3s0.2,0,0.3-0.1c3.9-7.6,12.2-12.8,22.4-8.8c10.6,4.1,15.3,16.4,16.3,25c0,0.1,0.1,0.2,0.2,0.2
					c0.1,0,0.2-0.1,0.3-0.2C209.3-62.7,202-79,189-85.9c7.1,2,13.4,6.3,17,13.4c8.3,1,14,3.9,16.9,9.2c0.1,0.1,0.2,0.2,0.3,0.1
					c0.1,0,0.2-0.1,0.2-0.3c-0.2-2.1-0.9-6.3-4.1-8.3c7,0,12.5-0.9,17.8-3C237.2-74.7,237.2-74.8,237.2-75z M207.7-21.5
					c0.1-0.1,0.2-0.1,0.3,0c0.1,0.1,0.1,0.2,0,0.3c-1.6,2.8-0.1,6.8,3.1,6.8c5.7,0,8.5-10.8,7.6-20.6c-2.2,5.8-4,8.1-7.4,10.8
					c-0.1,0.1-0.2,0.1-0.3,0c-0.1-0.1-0.1-0.2-0.1-0.3c4.9-9.1,5.9-16.1,5.9-24.1c-1.5,6-3.2,9.3-8.1,14.4c-0.1,0.1-0.2,0.1-0.3,0
					s-0.1-0.2-0.1-0.3c5.3-11.6,4.9-24.4,0.9-34.3c0-0.1,0-0.2,0.1-0.3c0.1-0.1,0.2-0.1,0.3,0c5.2,2.6,8.3,4.2,12.8,10.4
					c-1.4,7.4-0.2,11.1,3.2,17.2c-3.9-9.9-1.8-23.9,8.2-29.6c0.1-0.1,0.2,0,0.3,0.1c0.1,0.1,0.1,0.2,0,0.3c-3.8,4-6.5,10.6-4.2,17.9
					c-1.5-10.4,7.6-19.1,17.8-19.1c9.6,0,16.1,7.5,15.6,14.9c-0.5,7.4-5.4,11-9.7,12.5c-0.1,0-0.2,0-0.3-0.1s-0.1-0.2,0-0.3
					c5.6-5.7,6.4-16.5-3.6-19.8c5.9,5.1,3.7,16.8-5.7,17.7c-0.1,0-0.2-0.1-0.3-0.2c0-0.1,0-0.2,0.1-0.3c2-1.3,3.7-3.8,3.7-6.6
					c0-4.7-3.4-6.5-5.7-6.5c-3.4,0-6.3,3.3-6.3,8.2c0,5.8,5.3,10.7,12,11.4c6.6,0.7,12.8-2.1,15.7-6.5c0.1-0.1,0.2-0.1,0.3-0.1
					s0.2,0.2,0.1,0.3c-3,11.7-16.8,16.9-26.9,9.5c6.6,7.5,17,7.6,25.7-0.1c0.1-0.1,0.2-0.1,0.3,0c0.1,0.1,0.1,0.2,0.1,0.3
					c-2.7,5.4-9.2,11.8-18.6,10.9c-8.6-0.9-13.5-9-14.5-15.7c-0.6,8.5,1.4,14.5,8.8,20.1c0.1,0.1,0.1,0.2,0.1,0.3s-0.2,0.2-0.3,0.1
					c-6.8-2-12.2-5.4-15.1-12.5c0,6.2,2.1,12.4,7.5,16.5c0.1,0.1,0.1,0.2,0.1,0.3c-0.1,0.1-0.2,0.2-0.3,0.1c-3.4-1-6.2-2.5-8.1-5.2
					c-1.3,11.1-6.5,17.7-12.5,17.7c-4.1,0-7.2-3-7.2-7.9C202.9-15.3,204.4-19.3,207.7-21.5z M108.5-113.1c3.2-3.9,9.5-5.4,16.4-4
					c-0.5-4.3,0.3-8.8,1.6-11.5c0.1-0.1,0.2-0.2,0.3-0.1s0.2,0.1,0.2,0.3c-0.4,8.8,4.6,15.8,13.5,18.9c-6.9-4.8-8.9-14.2-5.6-19.1
					c0.1-0.1,0.2-0.1,0.3-0.1c0.1,0,0.2,0.2,0.1,0.3c-0.4,2.1,0.6,4.7,2.7,6.7c2.9,2.8,6.9,3.4,8.8,1.4c2-2,1.2-5.9-1.7-8.8
					c-1.1-1-2.3-1.8-3.4-2.2c-0.1,0-0.2-0.1-0.2-0.3c0-0.1,0.1-0.2,0.2-0.2c6.4-0.6,10.8,3.2,13.5,7.9c2.8,4.7,7.6,8.4,13.2,7.7
					c0.1,0,0.2,0.1,0.3,0.2c0,0.1,0,0.2-0.1,0.3c-2.8,1.7-5.9,2.4-9.9,1.1c5.8,4.9,14.1,7.7,21.8,5.2c0.1,0,0.2,0,0.3,0.1
					c0.1,0.1,0.1,0.2,0,0.3c-5.9,6.6-17.7,6.7-25.1,1.4c3,4.3,7.1,7.5,14.3,8.5c0.1,0,0.2,0.1,0.2,0.2c0,0.1-0.1,0.2-0.2,0.3
					c-8.3,3.1-16.6,0-23.4-8.2c3,6.4,7.9,11.5,14.8,14c0.1,0,0.2,0.2,0.2,0.3c0,0.1-0.1,0.2-0.2,0.2c-3.9,0.1-7.5-0.9-12.3-3.6
					c3.5,5.7,2.7,15.6-2.4,22.3c-0.1,0.1-0.2,0.1-0.3,0.1c-0.1-0.1-0.2-0.2-0.1-0.3c1.2-7.2-1.3-15.3-5.6-19.6
					c2.1,7.6,0,14.6-5.9,19.6c-0.1,0.1-0.2,0.1-0.3,0c-0.1,0-0.1-0.1-0.2-0.2c-1.2-9.4-11.8-19-20.6-19.8c-0.1,0-0.2-0.1-0.2-0.2
					c0-0.1,0.1-0.2,0.2-0.3c4.3-1,8.7-0.5,12.4,1c-2.7-2.9-5.9-5.1-9.6-6.2c-0.1,0-0.2-0.1-0.2-0.3c0-0.1,0.1-0.2,0.2-0.2
					c4.5-0.3,8.9,1,12.7,3.5c-4.4-6.6-11-11.5-19.4-13.5c-0.1,0-0.2-0.1-0.2-0.3c0-0.1,0.1-0.2,0.2-0.2c11.9-1.3,21.8,3.3,28.2,11.9
					c-1.6-4.9-6.4-9.8-12.9-12.6c-5.8-2.5-11.8-2.9-16.4-1.5c-0.1,0-0.2,0-0.3-0.1C108.4-112.9,108.4-113,108.5-113.1z M161.4-37.5
					c-4.8-10.5-4.5-18.7-0.6-29.1c0-0.1,0.2-0.2,0.3-0.2s0.2,0.1,0.2,0.3c-0.6,12.6,2.8,21.6,10.3,27.8c-8.2-9.9-4.4-29.6,8.8-29.6
					c9.6,0,17.5,8,19.5,17.5c0,0.1,0,0.2-0.2,0.3c-0.1,0-0.2,0-0.3-0.1c-2.8-4.8-7.4-7.9-12.5-7.9c-8.1,0-10.5,6.5-10.5,11
					c0,6.2,4.9,11.3,8.7,11.3c3.4,0,5-2.8,5-4.9c0-3.9-3-7.2-6.4-8.2c-0.1,0-0.2-0.1-0.2-0.3c0-0.1,0.1-0.2,0.2-0.2
					c4.1,0,7.6,1.9,9.6,5.6c0.3-2.9,0.3-4.7-0.6-7.7c0-0.1,0-0.2,0.1-0.3c0.1-0.1,0.2,0,0.3,0.1c7.4,9.4,3.8,25.6-2,32.4
					c5.5-4,10.4-12.6,10.3-24.4c0-0.1,0.1-0.2,0.2-0.2c0.1,0,0.2,0,0.3,0.1c4.1,10.2,1.9,29.2-9.3,39.8c2.9,0.4,5.9,0.4,9.1-0.7
					c0.1,0,0.2,0,0.3,0.1s0,0.2-0.1,0.3C198.1-1.1,192.4,0,187,0c4.7-5.5,3.1-16.6-4.4-16.6c-5.4,0-7.8,8.3-3.6,12.8
					c0.1,0.1,0.1,0.2,0,0.3c-0.1,0.1-0.2,0.1-0.3,0.1c-4.8-1.7-9.9-5.8-9.9-11c0-5,4.8-9.4,11.8-9.1c-8.8-2.5-18.1,0.3-22.9,6.2
					c-0.1,0.1-0.2,0.1-0.3,0.1c-0.1-0.1-0.2-0.2-0.1-0.3c2.8-10.7,12-15.2,23.4-13.7c-9.3-3.8-23.2-0.5-29.4,7.3
					c-0.1,0.1-0.2,0.1-0.3,0.1c-0.1-0.1-0.2-0.2-0.1-0.3C152.2-30.6,155.7-35.6,161.4-37.5z"/>
			</g>
			<g>
				<path class="st1" d="M26.7-56.8c0,0.1,0.1,0.2,0.2,0.2c12.9,0.1,24.8,3.3,34,11.5c-8-5.6-22.9-7.5-31.5-3.6
					c-0.1,0.1-0.2,0.2-0.1,0.3s0.1,0.2,0.2,0.2c10.7-0.3,19.3,3,26,9c-6.9,0.4-12.6,4.7-12.6,9.8c0,0.1,0.1,0.2,0.2,0.2
					s0.2,0,0.3-0.1c1.1-2.5,4.8-3.8,8.6-2.9c4.2,1,7,4.2,6.3,7.2c-0.5,2-2.4,3.4-5,3.8c-0.1,0-0.2,0.1-0.2,0.3
					c0,0.1,0.1,0.2,0.2,0.2c1.1,0.1,2.2,0.1,3.3,0c6.5-0.6,11.5-4.6,12-9.2c4.7,0.6,8.9,3.2,10.4,6.8c0,0.1,0.2,0.2,0.3,0.1
					c0.1,0,0.2-0.1,0.2-0.2c0.4-4.8-1.3-7.8-5-10.9c5.4,2.1,11.4,2.2,17.3-0.5c0.1-0.1,0.2-0.2,0.1-0.3c0-0.1-0.1-0.2-0.2-0.2
					c-4.9-0.2-8.4-1.8-11.7-5.1c18.2,5.1,33.1-6.2,27.9-23.1c0-0.1-0.2-0.2-0.3-0.2c-0.1,0-0.2,0.1-0.2,0.2
					c-0.9,9.7-7.7,16.1-17.9,17.1c5.4-2.1,11-7,11.6-15.5c0-0.1-0.1-0.2-0.2-0.3s-0.2,0-0.3,0.1c-2.8,6.1-8.3,9.3-14.2,9.8
					c6.3-2.6,10.4-8.6,11.6-16.4c0-0.1-0.1-0.2-0.2-0.3c-0.1,0-0.2,0-0.3,0.1c-3.9,7.6-12.2,12.8-22.5,8.8
					c-10.6-4.1-15.3-16.4-16.3-25c0-0.1-0.1-0.2-0.2-0.2c-0.1,0-0.2,0.1-0.3,0.2c-3.7,15.7,3.6,31.9,16.6,38.8
					c-7.1-2-13.4-6.3-17-13.4c-8.3-1-14-3.9-16.9-9.2c-0.1-0.1-0.2-0.2-0.3-0.1c-0.1,0-0.2,0.1-0.2,0.3c0.2,2.1,0.9,6.3,4.1,8.3
					c-7,0-12.5,0.9-17.8,3C26.7-57.1,26.7-56.9,26.7-56.8z M56.2-110.3c-0.1,0.1-0.2,0.1-0.3,0s-0.1-0.2,0-0.3
					c1.6-2.8,0.1-6.8-3-6.8c-5.7,0-8.5,10.8-7.6,20.6c2.2-5.8,4-8.1,7.3-10.8c0.1-0.1,0.2-0.1,0.3,0s0.1,0.2,0.1,0.3
					C48-98.2,47-91.2,47-83.2c1.5-6,3.2-9.3,8.1-14.4c0.1-0.1,0.2-0.1,0.3,0s0.1,0.2,0.1,0.3c-5.3,11.6-4.9,24.4-1,34.3
					c0,0.1,0,0.2-0.1,0.3c-0.1,0.1-0.2,0.1-0.3,0C49-65.3,46-67,41.5-73.1c1.4-7.4,0.2-11.1-3.2-17.2c3.9,9.9,1.8,23.9-8.2,29.6
					c-0.1,0.1-0.2,0-0.3-0.1c-0.1-0.1-0.1-0.2,0-0.3c3.8-4,6.5-10.6,4.2-17.9c1.5,10.4-7.6,19.1-17.8,19.1
					c-9.6,0-16.1-7.5-15.6-14.9c0.5-7.4,5.4-11,9.7-12.5c0.1,0,0.2,0,0.3,0.1s0.1,0.2,0,0.3c-5.6,5.7-6.4,16.5,3.6,19.8
					c-5.9-5.1-3.7-16.8,5.7-17.7c0.1,0,0.2,0.1,0.3,0.2c0,0.1,0,0.2-0.1,0.3c-2,1.3-3.7,3.8-3.7,6.6c0,4.7,3.4,6.5,5.7,6.5
					c3.4,0,6.3-3.3,6.3-8.2c0-5.8-5.3-10.7-12-11.4c-6.6-0.7-12.8,2.1-15.8,6.5c-0.1,0.1-0.2,0.1-0.3,0.1S0-84.6,0-84.7
					c3-11.7,16.8-16.9,26.9-9.5c-6.6-7.5-17-7.6-25.7,0.1c-0.1,0.1-0.2,0.1-0.3,0c-0.1-0.1-0.1-0.2-0.1-0.3
					c2.7-5.4,9.2-11.8,18.6-10.9c8.6,0.9,13.5,9,14.5,15.7c0.6-8.5-1.4-14.5-8.8-20.1c-0.1-0.1-0.1-0.2-0.1-0.3
					c0-0.1,0.2-0.2,0.3-0.1c6.8,2,12.2,5.4,15,12.5c0-6.2-2.1-12.4-7.5-16.5c-0.1-0.1-0.1-0.2-0.1-0.3c0-0.1,0.2-0.2,0.3-0.1
					c3.5,1,6.2,2.5,8.1,5.2c1.3-11.1,6.5-17.7,12.5-17.7c4.1,0,7.2,3,7.2,7.9C61-116.5,59.5-112.5,56.2-110.3z M155.4-18.7
					c-3.2,3.9-9.5,5.4-16.4,4c0.5,4.3-0.3,8.8-1.6,11.5c-0.1,0.1-0.2,0.2-0.3,0.1s-0.2-0.1-0.2-0.3c0.4-8.8-4.6-15.8-13.4-18.9
					c6.9,4.8,8.9,14.2,5.6,19.1c-0.1,0.1-0.2,0.1-0.3,0.1c-0.1,0-0.2-0.2-0.1-0.3c0.4-2.1-0.6-4.7-2.7-6.7c-2.9-2.8-6.8-3.4-8.8-1.4
					c-2,2-1.2,5.9,1.7,8.8c1.1,1,2.3,1.8,3.4,2.2c0.1,0,0.2,0.1,0.2,0.3c0,0.1-0.1,0.2-0.2,0.2c-6.4,0.6-10.8-3.2-13.5-7.9
					c-2.8-4.7-7.6-8.4-13.2-7.7c-0.1,0-0.2-0.1-0.3-0.2c0-0.1,0-0.2,0.1-0.3c2.8-1.7,5.9-2.4,9.9-1.1c-5.8-4.9-14.1-7.7-21.8-5.2
					c-0.1,0-0.2,0-0.3-0.1c-0.1-0.1-0.1-0.2,0-0.3c5.9-6.6,17.7-6.7,25.1-1.4c-3-4.3-7.1-7.5-14.3-8.5c-0.1,0-0.2-0.1-0.2-0.2
					c0-0.1,0.1-0.2,0.2-0.3c8.3-3.1,16.6,0,23.4,8.2c-3-6.4-7.9-11.5-14.8-14c-0.1,0-0.2-0.2-0.2-0.3s0.1-0.2,0.2-0.2
					c3.9-0.1,7.5,0.9,12.3,3.6c-3.5-5.7-2.7-15.6,2.4-22.3c0.1-0.1,0.2-0.1,0.3-0.1c0.1,0.1,0.2,0.2,0.2,0.3
					c-1.2,7.2,1.3,15.3,5.6,19.6c-2.2-7.6,0-14.6,5.9-19.6c0.1-0.1,0.2-0.1,0.3,0c0.1,0,0.1,0.1,0.2,0.2c1.2,9.4,11.8,19,20.6,19.8
					c0.1,0,0.2,0.1,0.2,0.2c0,0.1-0.1,0.2-0.2,0.3c-4.3,1-8.7,0.5-12.4-1c2.7,2.9,5.9,5.1,9.6,6.2c0.1,0,0.2,0.1,0.2,0.3
					c0,0.1-0.1,0.2-0.2,0.2c-4.5,0.3-8.9-1-12.7-3.5c4.4,6.6,11,11.5,19.4,13.5c0.1,0,0.2,0.1,0.2,0.3c0,0.1-0.1,0.2-0.2,0.2
					c-11.9,1.3-21.8-3.3-28.2-11.9c1.7,4.9,6.4,9.8,12.9,12.6c5.9,2.5,11.9,2.9,16.4,1.5c0.1,0,0.2,0,0.3,0.1
					C155.5-18.9,155.5-18.8,155.4-18.7z M102.5-94.2c4.8,10.5,4.5,18.7,0.6,29.1c0,0.1-0.2,0.2-0.3,0.2c-0.1,0-0.2-0.1-0.2-0.3
					c0.6-12.6-2.8-21.6-10.3-27.8c8.2,9.9,4.3,29.6-8.8,29.6c-9.6,0-17.5-8-19.5-17.5c0-0.1,0-0.2,0.2-0.3c0.1,0,0.2,0,0.3,0.1
					c2.8,4.8,7.4,7.9,12.5,7.9c8.1,0,10.5-6.5,10.5-11c0-6.2-4.9-11.3-8.7-11.3c-3.4,0-5,2.8-5,4.9c0,3.9,3,7.2,6.4,8.2
					c0.1,0,0.2,0.1,0.2,0.3c0,0.1-0.1,0.2-0.2,0.2c-4.1,0-7.6-1.9-9.6-5.6c-0.3,2.9-0.3,4.7,0.6,7.7c0,0.1,0,0.2-0.1,0.3
					c-0.1,0.1-0.2,0-0.3-0.1c-7.4-9.4-3.8-25.6,2-32.4c-5.5,4-10.4,12.6-10.3,24.4c0,0.1-0.1,0.2-0.2,0.2c-0.1,0-0.2,0-0.3-0.1
					c-4.1-10.2-1.9-29.2,9.3-39.8c-2.9-0.4-5.9-0.3-9.1,0.7c-0.1,0-0.2,0-0.3-0.1c-0.1-0.1,0-0.2,0.1-0.3c4.1-3.5,9.8-4.5,15.3-4.5
					c-4.7,5.5-3.1,16.6,4.4,16.6c5.3,0,7.8-8.3,3.7-12.8c-0.1-0.1-0.1-0.2,0-0.3s0.2-0.1,0.3-0.1c4.8,1.6,9.9,5.8,9.9,11
					c0,5-4.8,9.4-11.8,9.1c8.8,2.5,18.1-0.3,22.9-6.2c0.1-0.1,0.2-0.1,0.3-0.1c0.1,0.1,0.2,0.2,0.1,0.3c-2.8,10.7-12,15.2-23.4,13.7
					c9.3,3.8,23.2,0.5,29.4-7.3c0.1-0.1,0.2-0.1,0.3-0.1c0.1,0.1,0.2,0.2,0.1,0.3C111.8-101.1,108.3-96.2,102.5-94.2z"/>
				<path class="st2" d="M128.9-75c0-0.1-0.1-0.2-0.2-0.2c-12.9-0.1-24.8-3.3-34-11.5c8,5.6,22.9,7.5,31.5,3.6
					c0.1-0.1,0.2-0.2,0.1-0.3s-0.1-0.2-0.2-0.2c-10.7,0.3-19.3-3-26-9c6.9-0.4,12.6-4.7,12.6-9.9c0-0.1-0.1-0.2-0.2-0.2
					c-0.1,0-0.2,0-0.3,0.1c-1.1,2.5-4.8,3.8-8.6,2.9c-4.2-1-7-4.2-6.3-7.2c0.5-2,2.4-3.4,4.9-3.8c0.1,0,0.2-0.1,0.2-0.3
					c0-0.1-0.1-0.2-0.2-0.2c-1.1-0.1-2.2-0.1-3.3,0c-6.5,0.6-11.5,4.6-11.9,9.2c-4.7-0.6-8.9-3.2-10.4-6.8c0-0.1-0.2-0.2-0.3-0.1
					c-0.1,0-0.2,0.1-0.2,0.2c-0.4,4.8,1.3,7.8,5,10.9c-5.4-2.1-11.4-2.2-17.3,0.5c-0.1,0.1-0.2,0.2-0.1,0.3c0,0.1,0.1,0.2,0.2,0.2
					c4.9,0.2,8.4,1.8,11.7,5.1c-18.3-5.1-33.1,6.2-28,23.1c0,0.1,0.2,0.2,0.3,0.2c0.1,0,0.2-0.1,0.2-0.2c0.9-9.7,7.7-16.1,17.9-17.1
					c-5.4,2.1-11,7-11.6,15.5c0,0.1,0.1,0.2,0.2,0.3s0.2,0,0.3-0.1c2.8-6.1,8.3-9.3,14.2-9.8c-6.3,2.6-10.4,8.6-11.6,16.4
					c0,0.1,0,0.2,0.2,0.3s0.2,0,0.3-0.1c3.9-7.6,12.2-12.8,22.5-8.8c10.6,4.1,15.3,16.4,16.3,25c0,0.1,0.1,0.2,0.2,0.2
					c0.1,0,0.2-0.1,0.3-0.2C101-62.7,93.7-79,80.6-85.9c7.1,2,13.4,6.3,17,13.4c8.3,1,14,3.9,16.9,9.2c0.1,0.1,0.2,0.2,0.3,0.1
					c0.1,0,0.2-0.1,0.2-0.3c-0.2-2.1-0.9-6.3-4.1-8.3c7,0,12.5-0.9,17.8-3C128.8-74.7,128.9-74.8,128.9-75z M99.4-21.5
					c0.1-0.1,0.2-0.1,0.3,0s0.1,0.2,0,0.3c-1.6,2.8-0.1,6.8,3.1,6.8c5.7,0,8.5-10.8,7.6-20.6c-2.2,5.8-4,8.1-7.3,10.8
					c-0.1,0.1-0.2,0.1-0.3,0s-0.1-0.2-0.1-0.3c4.9-9.1,5.9-16.1,5.9-24.1c-1.5,6-3.2,9.3-8.1,14.4c-0.1,0.1-0.2,0.1-0.3,0
					s-0.1-0.2-0.1-0.3c5.3-11.6,4.9-24.4,0.9-34.3c0-0.1,0-0.2,0.1-0.3c0.1-0.1,0.2-0.1,0.3,0c5.2,2.6,8.3,4.2,12.8,10.4
					c-1.4,7.4-0.2,11.1,3.2,17.2c-3.9-9.9-1.8-23.9,8.2-29.6c0.1-0.1,0.2,0,0.3,0.1c0.1,0.1,0.1,0.2,0,0.3c-3.8,4-6.5,10.6-4.2,17.9
					c-1.5-10.4,7.6-19.1,17.8-19.1c9.6,0,16.1,7.5,15.6,14.9c-0.5,7.4-5.4,11-9.7,12.5c-0.1,0-0.2,0-0.3-0.1s-0.1-0.2,0-0.3
					c5.6-5.7,6.4-16.5-3.6-19.8c5.9,5.1,3.7,16.8-5.7,17.7c-0.1,0-0.2-0.1-0.3-0.2c0-0.1,0-0.2,0.1-0.3c2-1.3,3.7-3.8,3.7-6.6
					c0-4.7-3.4-6.5-5.7-6.5c-3.4,0-6.3,3.3-6.3,8.2c0,5.8,5.3,10.7,12,11.4c6.6,0.7,12.8-2.1,15.8-6.5c0.1-0.1,0.2-0.1,0.3-0.1
					s0.2,0.2,0.1,0.3c-3,11.7-16.8,16.9-26.9,9.5c6.6,7.5,17,7.6,25.7-0.1c0.1-0.1,0.2-0.1,0.3,0c0.1,0.1,0.1,0.2,0.1,0.3
					c-2.7,5.4-9.2,11.8-18.6,10.9c-8.6-0.9-13.5-9-14.5-15.7c-0.6,8.5,1.4,14.5,8.8,20.1c0.1,0.1,0.1,0.2,0.1,0.3
					c-0.1,0.1-0.2,0.2-0.3,0.1c-6.8-2-12.2-5.4-15.1-12.5c0,6.2,2.1,12.4,7.5,16.5c0.1,0.1,0.1,0.2,0.1,0.3
					c-0.1,0.1-0.2,0.2-0.3,0.1c-3.4-1-6.2-2.5-8.1-5.2c-1.3,11.1-6.5,17.7-12.5,17.7c-4.1,0-7.2-3-7.2-7.9
					C94.6-15.3,96.1-19.3,99.4-21.5z M0.2-113.1c3.2-3.9,9.5-5.4,16.4-4c-0.5-4.3,0.3-8.8,1.6-11.5c0-0.1,0.2-0.2,0.3-0.1
					s0.2,0.1,0.2,0.3c-0.4,8.8,4.6,15.8,13.5,18.9c-6.9-4.8-8.9-14.2-5.6-19.1c0.1-0.1,0.2-0.1,0.3-0.1c0.1,0,0.2,0.2,0.1,0.3
					c-0.4,2.1,0.6,4.7,2.7,6.7c2.9,2.8,6.8,3.4,8.8,1.4c2-2,1.2-5.9-1.7-8.8c-1.1-1-2.3-1.8-3.5-2.2c-0.1,0-0.2-0.1-0.2-0.3
					c0-0.1,0.1-0.2,0.2-0.2c6.4-0.6,10.8,3.2,13.5,7.9c2.8,4.7,7.6,8.4,13.2,7.7c0.1,0,0.2,0.1,0.3,0.2c0,0.1,0,0.2-0.1,0.3
					c-2.8,1.7-5.9,2.4-9.9,1.1c5.8,4.9,14.1,7.7,21.8,5.2c0.1,0,0.2,0,0.3,0.1c0.1,0.1,0.1,0.2,0,0.3c-5.9,6.6-17.7,6.7-25.1,1.4
					c3,4.3,7.1,7.5,14.3,8.5c0.1,0,0.2,0.1,0.2,0.2c0,0.1,0,0.2-0.2,0.3c-8.3,3.1-16.6,0-23.5-8.2c3,6.4,7.9,11.5,14.8,14
					c0.1,0,0.2,0.2,0.2,0.3s-0.1,0.2-0.2,0.2c-3.9,0.1-7.5-0.9-12.3-3.6c3.5,5.7,2.7,15.6-2.4,22.3c-0.1,0.1-0.2,0.1-0.3,0.1
					c-0.1-0.1-0.2-0.2-0.2-0.3c1.2-7.2-1.3-15.3-5.6-19.6c2.2,7.6,0,14.6-5.9,19.6c-0.1,0.1-0.2,0.1-0.3,0C26-73.9,26-74,26-74.1
					c-1.2-9.4-11.8-19-20.6-19.8c-0.1,0-0.2-0.1-0.2-0.2c0-0.1,0.1-0.2,0.2-0.3c4.3-1,8.7-0.5,12.4,1c-2.7-2.9-5.9-5.1-9.6-6.2
					c-0.1,0-0.2-0.1-0.2-0.3c0-0.1,0.1-0.2,0.2-0.2c4.5-0.3,8.9,1,12.7,3.5C16.6-103.1,10-108,1.5-110c-0.1,0-0.2-0.1-0.2-0.3
					c0-0.1,0.1-0.2,0.2-0.2c11.9-1.3,21.8,3.3,28.2,11.9c-1.6-4.9-6.4-9.8-13-12.6c-5.9-2.5-11.9-2.9-16.4-1.5c-0.1,0-0.2,0-0.3-0.1
					C0.1-112.9,0.1-113,0.2-113.1z M53.1-37.5c-4.8-10.5-4.5-18.7-0.6-29.1c0-0.1,0.2-0.2,0.3-0.2c0.1,0,0.2,0.1,0.2,0.3
					c-0.6,12.6,2.8,21.6,10.3,27.8c-8.2-9.9-4.3-29.6,8.8-29.6c9.6,0,17.5,8,19.5,17.5c0,0.1,0,0.2-0.2,0.3c-0.1,0-0.2,0-0.3-0.1
					c-2.8-4.8-7.4-7.9-12.5-7.9c-8.1,0-10.5,6.5-10.5,11c0,6.2,4.9,11.3,8.7,11.3c3.4,0,5-2.8,5-4.9c0-3.9-3-7.2-6.4-8.2
					c-0.1,0-0.2-0.1-0.2-0.3s0.1-0.2,0.2-0.2c4.1,0,7.6,1.9,9.6,5.6c0.3-2.9,0.3-4.7-0.6-7.7c0-0.1,0-0.2,0.1-0.3
					c0.1-0.1,0.2,0,0.3,0.1c7.4,9.4,3.8,25.6-2,32.4c5.5-4,10.4-12.6,10.3-24.4c0-0.1,0.1-0.2,0.2-0.2c0.1,0,0.2,0,0.3,0.1
					c4.1,10.2,1.9,29.2-9.3,39.8c2.9,0.4,5.9,0.4,9.1-0.7c0.1,0,0.2,0,0.3,0.1c0.1,0.1,0,0.2-0.1,0.3C89.8-1.1,84.1,0,78.6,0
					c4.7-5.5,3.1-16.6-4.3-16.6c-5.3,0-7.8,8.3-3.7,12.8c0.1,0.1,0.1,0.2,0,0.3c-0.1,0.1-0.2,0.1-0.3,0.1c-4.8-1.7-10-5.8-10-11
					c0-5,4.8-9.4,11.8-9.1c-8.8-2.5-18,0.3-22.9,6.2c-0.1,0.1-0.2,0.1-0.3,0.1c-0.1-0.1-0.2-0.2-0.1-0.3c2.8-10.7,12-15.2,23.4-13.7
					c-9.3-3.8-23.2-0.5-29.4,7.3c-0.1,0.1-0.2,0.1-0.3,0.1c-0.1-0.1-0.2-0.2-0.1-0.3C43.8-30.6,47.3-35.6,53.1-37.5z"/>
			</g>
		</g>
	</g>
</pattern>
<pattern  id="SVGID_1_" xlink:href="#Jive" patternTransform="matrix(1.0384 0 0 -1 464.6848 -16013.5195)"  style="enable-background:new    ;">
</pattern>
<text transform="matrix(1.0384 0 0 1 -3.3857 167.7793)" class="st3 st4 st5"><pattern  id="SVGID_2_" xlink:href="#Jive" patternTransform="matrix(1.0384 0 0 -1 464.6848 -16013.5195)">
</pattern>
MimiShop</text>
<text transform="matrix(1.0384 0 0 1 -3.3857 167.7793)" class="st6 st4 st5">MimiShop</text>
</svg>
